<?xml version="1.0" standalone="no"?>
<!DOCTYPE svg PUBLIC "-//W3C//DTD SVG 1.1//EN" "http://www.w3.org/Graphics/SVG/1.1/DTD/svg11.dtd" >
<svg xmlns="http://www.w3.org/2000/svg">
<metadata></metadata>
<defs>
<font id="micradiregular" horiz-adv-x="963" >
<font-face units-per-em="2048" ascent="1638" descent="-410" />
<missing-glyph horiz-adv-x="1139" />
<glyph horiz-adv-x="2048" />
<glyph horiz-adv-x="2048" />
<glyph unicode="&#xd;" horiz-adv-x="1139" />
<glyph unicode=" "  horiz-adv-x="1139" />
<glyph unicode="&#x09;" horiz-adv-x="1139" />
<glyph unicode="&#xa0;" horiz-adv-x="1139" />
<glyph unicode="!" horiz-adv-x="277" d="M11 0v257h235v-257h-235zM31 399v1065h194v-1065h-194z" />
<glyph unicode="&#x22;" horiz-adv-x="764" d="M54 925v141q114 0 114 55q0 66 -83 66v257h234v-395q0 -55 -46 -89.5t-103 -34.5h-116zM430 925v141q114 0 115 55q0 66 -83 66v257h234v-395q0 -55 -46 -89.5t-103 -34.5h-117z" />
<glyph unicode="#" horiz-adv-x="1056" d="M7 491l13 85h268l30 238h-268l16 89h265l55 390h89l-56 -390h251l52 390h92l-55 -390h271l-11 -89h-273l-29 -238h265l-9 -85h-273l-63 -423h-83l61 423h-251l-61 -423h-92l60 423h-264zM375 576h249l35 238h-253z" />
<glyph unicode="$" horiz-adv-x="1815" d="M85 482h214q0 -218 96 -270q72 -39 379 -38v441q-410 0 -565 120q-124 98 -124 329q0 262 177 343q129 59 512 59v176h216v-176q362 0 489 -77q161 -100 161 -401h-214q0 203 -122 255q-66 30 -314 29v-463q321 0 462 -56q230 -90 230 -358q0 -260 -182 -347 q-140 -68 -510 -68v-176h-216v176q-434 0 -551 75q-139 90 -138 427zM299 1038q0 -151 176 -201q94 -28 299 -28v463q-251 0 -312 -16q-163 -42 -163 -218zM990 174q225 0 301 20q175 44 175 201q0 151 -177 198q-87 22 -299 22v-441z" />
<glyph unicode="%" horiz-adv-x="1741" d="M2 0v214l1606 1075v-223zM24 953q0 198 70 251q57 44 268 44q205 0 266 -46q72 -55 72 -249q0 -196 -72 -251q-61 -44 -266 -45q-211 0 -268 45q-70 54 -70 251zM209 953q0 -90 42 -115q28 -17 111 -16q79 0 109 16q44 26 44 115q0 78 -36 105.5t-117 27.5 q-79 0 -115 -26q-39 -31 -38 -107zM903 327q0 199 70 253q57 44 266 44q207 0 268 -46q70 -55 70 -251q0 -194 -72 -249q-59 -44 -266 -45q-209 0 -266 45q-70 54 -70 249zM1086 327q0 -89 44 -115q28 -17 109 -16q81 0 109 16q46 28 46 115q0 79 -36 107t-119 28 q-78 0 -113 -28q-41 -30 -40 -107z" />
<glyph unicode="&#x26;" horiz-adv-x="2382" d="M218 417q0 203 44 292q61 120 240 150q-70 63 -70 264q0 227 266 301q139 39 449 39q718 0 718 -294v-177h-214v133q0 142 -506 142q-205 0 -286 -11q-205 -30 -211 -131q-4 -35 -3 -61q0 -109 64 -142l1080 -569q35 35 36 288h216v-52q0 -240 -28 -349l220 -113v-201 l-316 152q-72 -100 -787 -100q-613 0 -775 92q-137 78 -137 347zM432 417q0 -140 107 -188q127 -57 591 -57h604l-988 498q-78 39 -131 39q-124 0 -161 -90q-22 -54 -22 -202z" />
<glyph unicode="'" horiz-adv-x="428" d="M90 925v141q114 0 115 55q0 66 -83 66v257h234v-395q0 -55 -46 -89.5t-103 -34.5h-117z" />
<glyph unicode="(" horiz-adv-x="481" d="M9 270v903q0 194 114.5 318.5t304.5 124.5v-152q-98 0 -157 -99q-48 -85 -48 -192v-903q0 -105 48 -191q59 -100 157 -99v-152q-188 0 -303.5 125.5t-115.5 316.5z" />
<glyph unicode=")" horiz-adv-x="481" d="M9 -20q100 0 157 99q48 85 48 191v903q0 107 -48 192q-57 100 -157 99v152q190 0 304.5 -125.5t114.5 -317.5v-903q0 -192 -113.5 -317t-305.5 -125v152z" />
<glyph unicode="*" horiz-adv-x="1270" d="M137 166l375 375l-375 375l138 137l373 -372l377 377l137 -136l-375 -375l375 -375l-137 -137l-373 373l-377 -378z" />
<glyph unicode="+" d="M100 632v193h725v-193h-725z" />
<glyph unicode="," horiz-adv-x="387" d="M42 -135q114 0 115 56q0 66 -83 66v257h236v-395q0 -55 -47 -89.5t-102 -34.5h-119v140z" />
<glyph unicode="-" d="M100 632v193h725v-193h-725z" />
<glyph unicode="." horiz-adv-x="328" d="M52 -11v257h234v-257h-234z" />
<glyph unicode="/" horiz-adv-x="1687" d="M124 0v277l1346 1151v-278z" />
<glyph unicode="0" horiz-adv-x="1878" d="M116 720q0 366 56 508q59 155 234 201q133 35 516 35q550 0 672 -110q131 -119 131 -634q0 -364 -56 -506q-59 -153 -232 -199q-133 -35 -515 -35q-550 0 -675 109q-131 116 -131 631zM332 720q0 -294 30 -388q37 -113 162 -140q83 -18 398 -18q318 0 398 18 q124 28 159 139q30 94 30 389q0 297 -28 392q-37 113 -161 140q-83 18 -398 19q-318 0 -399 -19q-126 -28 -161 -140q-30 -94 -30 -392z" />
<glyph unicode="1" horiz-adv-x="1874" d="M406 944l501 500h334v-1444h-214v1248h-39l-451 -447z" />
<glyph unicode="2" horiz-adv-x="1876" d="M122 0v297q0 192 120 290q102 81 305 111q68 11 432 17q292 7 393 51q126 54 126 213q0 164 -89 234q-70 55 -218 61q102 -4 -273 -3q-338 0 -329 0q-137 -11 -190 -84q-63 -83 -63 -297h-214q0 392 153 489q131 85 643 85q482 0 628 -79q166 -90 166 -393 q0 -386 -382 -447q-116 -18 -349 -19q-380 0 -499 -37q-146 -44 -146 -194v-101h1376v-194h-1590z" />
<glyph unicode="3" horiz-adv-x="1878" d="M133 508h216q0 -190 78 -268q63 -65 208 -72q-72 4 307 4q360 0 271 -4q139 6 202 61q81 68 81 235q0 170 -170 169h-598v194h598q81 0 127 61q42 54 43 141q0 177 -205 223q-72 15 -349 15q-397 0 -490 -54q-79 -48 -79 -253h-216q0 329 161 423q139 79 616 80 q449 0 599 -72q177 -87 177 -364q0 -111 -26 -172q-31 -78 -114 -126q140 -47 140 -278q0 -303 -155 -392q-144 -81 -613 -81q-528 0 -663 85q-146 92 -146 445z" />
<glyph unicode="4" horiz-adv-x="1874" d="M114 277v351l1046 816h338v-973h243v-194h-243v-277h-216v277h-1168zM331 471h951v777h-50l-901 -705v-72z" />
<glyph unicode="5" horiz-adv-x="1874" d="M118 451h216q0 -157 94 -224q74 -54 224 -57q-140 4 268 4q283 0 280 0q146 9 215 70q87 74 86 245q0 172 -85 246q-70 59 -216 66q44 -2 -282 -1q-286 0 -310 -4q-218 -22 -253 -131h-215v779h1515v-196h-1300v-367q48 113 563 113q480 0 628 -85q170 -96 170 -423 q0 -325 -170 -423q-148 -83 -626 -83q-517 0 -654 77q-148 83 -148 394z" />
<glyph unicode="6" horiz-adv-x="1874" d="M146 731q0 484 103 597q127 137 669 136q299 0 378 -9q190 -22 283 -111q113 -109 113 -341h-215q0 151 -90 216q-70 50 -214 55q107 -4 -255 -3h-9q-292 0 -372 -28q-177 -57 -177 -279v-225q100 131 558 131q502 0 628 -65q146 -75 146 -378q0 -233 -111 -338 q-92 -87 -285 -106q-52 -4 -378 -3q-569 0 -676 109q-96 98 -96 642zM360 427q0 -144 94 -205q72 -48 216 -52q-142 4 248 4q358 0 245 -4q146 6 220 52q94 63 94 205q0 140 -96 201q-72 48 -218 52q122 -4 -245 -4q-371 0 -246 4q-144 -4 -218 -52q-94 -61 -94 -201z" />
<glyph unicode="7" horiz-adv-x="1874" d="M140 1248v196h1526v-297l-959 -1147h-279l1022 1199v49h-1310z" />
<glyph unicode="8" horiz-adv-x="1879" d="M111 417q0 140 24 203q33 87 140 137q-87 57 -107 96q-26 52 -26 198q0 205 129 304q103 81 305 102q81 7 355 7q268 0 351 -9q201 -20 306 -100q131 -100 131 -304q0 -144 -27 -198q-18 -37 -108 -96q103 -48 135 -138q21 -60 21 -202q0 -268 -133 -347 q-151 -90 -676 -90q-526 0 -682 90q-139 81 -138 347zM325 417q0 -140 111 -199q81 -46 242 -50q-275 6 253 6q550 0 249 -6q157 4 238 48q106 61 106 201t-106 202q-81 46 -238 51q151 -6 -249 -5q-414 0 -253 5q-159 -6 -242 -51q-111 -61 -111 -202zM356 1049 q0 -127 108 -181q81 -41 234 -44q-323 6 233 5q652 0 234 -5q153 2 233 42q105 56 105 185q0 120 -109 175q-83 41 -238 46q72 -2 -225 -1q-294 0 -229 1q-153 -6 -237 -48q-109 -54 -109 -175z" />
<glyph unicode="9" horiz-adv-x="1874" d="M146 440h214q0 -150 91 -215q70 -50 214 -55q-107 4 255 4h7q294 0 373 25q177 59 177 281v218q-68 -85 -262 -113q-94 -11 -295 -11q-504 0 -628 65q-146 76 -146 379q0 233 111 337q92 87 284 104q52 6 379 5q569 0 676 -109q96 -97 96 -642q0 -484 -104 -597 q-127 -137 -668 -136q-299 0 -379 9q-192 22 -284 111q-111 109 -111 340zM360 1018q0 -140 96 -202q72 -48 218 -51q-122 4 246 3q371 0 245 -3q144 4 218 51q94 60 94 202q0 144 -94 205q-72 48 -216 51q142 -4 -247 -3q-358 0 -246 3q-146 -6 -220 -53q-94 -61 -94 -203z " />
<glyph unicode=":" horiz-adv-x="400" d="M52 -11v257h234v-257h-234zM52 1187v257h234v-257h-234z" />
<glyph unicode=";" horiz-adv-x="349" d="M31 -135q114 0 115 56q0 66 -85 66v257h236v-395q0 -55 -47 -89.5t-102 -34.5h-117v140zM61 1186v256h236v-256h-236z" />
<glyph unicode="&#x3c;" d="M135 541l513 512l137 -137l-375 -375l375 -375l-137 -136z" />
<glyph unicode="=" horiz-adv-x="1144" d="M100 436v196h864v-196h-864zM100 822v194h864v-194h-864z" />
<glyph unicode="&#x3e;" d="M137 166l375 375l-375 375l138 137l512 -512l-512 -511z" />
<glyph unicode="?" horiz-adv-x="1538" d="M66 982q0 238 80 353q72 100 234 131q103 18 372 19q356 0 476 -50q211 -85 211 -379q0 -196 -76 -312q-89 -140 -273 -140q-89 0 -181 -30q-126 -41 -126 -109v-55h-216v127q0 126 133 194q109 57 246 58q150 0 213.5 60t63.5 207q0 126 -76 183q-61 44 -181 52 q4 0 -214 0q-273 0 -342 -30q-129 -55 -129 -279h-215zM537 11v255h246v-255h-246z" />
<glyph unicode="@" horiz-adv-x="1972" d="M174 722q0 345 66.5 498.5t247.5 205.5q144 41 504 40q342 0 413 -7q198 -22 288 -120q109 -118 109 -377v-212q0 -192 -122.5 -313t-314.5 -121q-63 0 -94 11q-54 22 -87 87q-61 -98 -251 -98q-185 0 -281 116q-89 109 -89 297q0 174 89 289q98 127 268 127 q142 0 214 -78v52l212 -4v-530q0 -61 2 -72q9 -31 54 -31q100 0 147 90q39 72 39 181v191q0 238 -101 288q-83 41 -495 40q-307 0 -396 -20q-131 -30 -171 -142q-35 -102 -35 -388q0 -283 37 -384q41 -111 171 -142q89 -20 394 -21q334 0 280 -1q137 7 263 66l267 76 q-66 -199 -171 -255q-155 -79 -639 -79q-362 0 -506 40q-179 50 -246 205q-66 150 -66 495zM772 728q0 -246 183 -246q179 0 179 244q0 253 -179 253q-183 0 -183 -251z" />
<glyph unicode="A" horiz-adv-x="1922" d="M13 0l761 1444h334l763 -1444h-244l-170 321h-1030l-170 -321h-244zM523 512h840l-393 760h-54z" />
<glyph unicode="B" horiz-adv-x="1898" d="M68 0v1444h1108q211 0 329 -98q129 -105 129 -312q0 -218 -164 -279q107 -33 162 -129q54 -87 54 -205q0 -421 -460 -421h-1158zM283 194h941q246 0 246 225q0 109 -67.5 171t-178.5 62h-941v-458zM283 835h893q120 0 176 40q68 46 68 159q0 214 -244 214h-893v-413z" />
<glyph unicode="C" horiz-adv-x="1933" d="M113 720q0 345 66.5 498.5t245.5 205.5q143 40 489 40h17q347 0 423 -9q196 -22 284 -124q103 -120 103 -389h-216q0 238 -99 286q-83 42 -495 43q-308 0 -397 -21q-129 -30 -170 -142q-35 -102 -35 -388q0 -283 37 -384q41 -113 170 -142q90 -20 395 -20q408 0 493 40 q102 50 101 288h216q0 -268 -103 -388q-89 -103 -284 -125q-78 -9 -423 -9q-362 0 -506 40q-179 50 -248 205q-64 148 -64 485v10z" />
<glyph unicode="D" horiz-adv-x="2084" d="M116 0v1444h1214q332 0 426 -185q81 -162 81 -537q0 -473 -144 -622q-96 -100 -363 -100h-1214zM332 194h996q205 0 264 175q29 91 29 353q0 260 -31 353q-59 173 -260 173h-2h-996v-1054z" />
<glyph unicode="E" horiz-adv-x="1700" d="M94 0v1444h1383v-196h-1167v-419h1125v-194h-1125v-441h1167v-194h-1383z" />
<glyph unicode="F" horiz-adv-x="1639" d="M79 0v1444h1343v-196h-1127v-448h1086v-196h-1086v-604h-216z" />
<glyph unicode="G" horiz-adv-x="1985" d="M63 737q0 345 75.5 495.5t265.5 196.5q142 35 514 35q382 0 421 -3q214 -18 312 -113q122 -114 122 -375h-214q0 214 -107 261q-87 37 -534 37q-332 0 -414 -17q-139 -26 -183 -137q-42 -103 -42 -397t40 -397q44 -113 185 -138q81 -17 414 -17q343 0 343 -3q0 -1 -7 -1 q157 9 223 82q81 85 82 297h-697v194h911v-194q0 -288 -105 -417q-92 -113 -298 -141q-96 -11 -452 -11q-377 0 -525 39q-188 52 -259 209t-71 515z" />
<glyph unicode="H" horiz-adv-x="1998" d="M124 0v1444h214v-613h1243v613h216v-1444h-216v637h-1243v-637h-214z" />
<glyph unicode="I" horiz-adv-x="589" d="M153 0v1444h216v-1444h-216z" />
<glyph unicode="J" horiz-adv-x="1639" d="M41 539h216q0 -192 46 -266.5t159 -91.5q52 -7 288 -7q235 0 286 7q113 17 157 89q46 79 46 269v905h214v-905q0 -388 -134 -482q-110 -77 -559 -77h-12q-447 0 -569 90q-138 99 -138 464v5z" />
<glyph unicode="K" horiz-adv-x="1931" d="M98 0v1442h216v-609h210l935 609h375l-1069 -701l1096 -741h-365l-951 639h-231v-639h-216z" />
<glyph unicode="L" horiz-adv-x="1464" d="M79 0v1444h216v-1250h1108v-194h-1324z" />
<glyph unicode="M" horiz-adv-x="2616" d="M140 0v1444h384l748 -1185l748 1185h384v-1444h-214v1248h-42l-809 -1248h-135l-809 1248h-40v-1248h-215z" />
<glyph unicode="N" horiz-adv-x="2127" d="M126 0v1446h315l1238 -1265v1265h216v-1446h-325l-1230 1256v-1256h-214z" />
<glyph unicode="O" horiz-adv-x="1979" d="M96 720q0 351 33 462q61 203 370 258q127 24 489 24t488 -22q308 -57 369 -258q33 -109 33 -464q0 -351 -33 -460q-61 -203 -369 -258q-122 -22 -488 -22q-360 0 -488 22q-310 57 -371 257q-33 107 -33 461zM312 720q0 -292 51 -400.5t200 -132.5q74 -13 425 -13 q355 0 425 11q150 24 200.5 132t50.5 403q0 401 -85 471q-92 79 -591 80q-356 0 -428 -13q-150 -22 -199 -131t-49 -407z" />
<glyph unicode="P" horiz-adv-x="1759" d="M78 0v1444h1178q410 0 410 -462q0 -212 -102 -330q-107 -126 -317 -126h-953v-526h-216zM294 720h953q203 0 203 262q0 266 -205 266h-951v-528z" />
<glyph unicode="Q" horiz-adv-x="2096" d="M87 731q0 351 31 460q61 203 371 261q126 22 488 22t487 -22q310 -55 372 -257q31 -109 31 -464v-61q0 -271 -30 -382l165 -103l-107 -161l-150 102q-85 -89 -349 -120q-140 -17 -419 -17q-358 0 -488 24q-310 55 -371 255q-31 109 -31 463zM301 731q0 -294 51.5 -402.5 t201.5 -132.5q74 -11 423 -11q238 0 294 3q211 13 282 69l-517 341l105 157l497 -336q15 76 15 312q0 399 -83 471q-92 78 -593 78q-356 0 -427 -11q-150 -24 -199.5 -132t-49.5 -406z" />
<glyph unicode="R" horiz-adv-x="2005" d="M114 0v1444h1297q194 0 294 -138q90 -122 90 -324q0 -179 -57 -267q-41 -61 -130 -100q187 -79 187 -260v-355h-216v355q0 79 -79 127q-68 41 -154 41h-1015v-523h-217zM331 717h995q137 0 198 66q55 60 55 199q0 142 -58 204t-195 62h-995v-531z" />
<glyph unicode="S" horiz-adv-x="1841" d="M107 484h216q0 -201 93 -257q87 -52 493 -52q410 0 504 36q126 46 125 186q0 144 -86 185q-72 35 -495 35q-504 0 -671 120q-131 96 -131 329q0 253 155 330q148 72 647 72q491 0 637 -114q118 -94 118 -364h-211q0 181 -94 234q-87 50 -450 50q-303 0 -375 -11 q-212 -30 -213 -197q0 -144 117 -202q107 -54 547.5 -55t556.5 -57q163 -78 163 -355q0 -262 -196 -347q-155 -68 -650 -68q-530 0 -680 116q-120 92 -120 386z" />
<glyph unicode="T" horiz-adv-x="1684" d="M90 1248v196h1509v-196h-646v-1248h-216v1248h-647z" />
<glyph unicode="U" horiz-adv-x="1855" d="M98 419v1025h216v-1025q0 -144 103 -203q78 -46 235 -48q-196 2 -196 4t451 2t451 -2q0 -1 -195 -4q155 2 235 48q103 59 103 203v1025h215v-1025q0 -242 -117 -345q-92 -85 -295 -96h3q0 2 -400 2q-401 0 -401 -2h4q-201 11 -296 94q-116 103 -116 347z" />
<glyph unicode="V" horiz-adv-x="1826" d="M41 1444h221l674 -1250h32l672 1250h231l-791 -1444h-256z" />
<glyph unicode="W" horiz-adv-x="2570" d="M41 1444h221l674 -1250h32l249 463l-427 787h222l314 -583l314 583h231l-432 -790l247 -460h30l674 1250h230l-792 -1444h-255l-245 452l-248 -452h-256z" />
<glyph unicode="X" horiz-adv-x="2005" d="M52 0l744 744l-744 700h306l606 -587h30l605 587h305l-737 -700l759 -744h-299l-633 632h-30l-632 -632h-280z" />
<glyph unicode="Y" horiz-adv-x="1974" d="M7 1444h288l675 -687l674 687h288l-854 -866v-578h-216v578z" />
<glyph unicode="Z" horiz-adv-x="1820" d="M109 0v194l1235 1054h-1187v196h1487v-196l-1221 -1054h1221v-194h-1535z" />
<glyph unicode="[" horiz-adv-x="481" d="M9 -172v1788h419v-152h-205v-1484h205v-152h-419z" />
<glyph unicode="\" horiz-adv-x="1687" d="M124 1150v278l1346 -1151v-277z" />
<glyph unicode="]" horiz-adv-x="481" d="M9 -20h205v1484h-205v152h419v-1788h-419v152z" />
<glyph unicode="^" horiz-adv-x="1045" d="M122 1514l419 420l419 -420l-138 -144l-281 285l-281 -285z" />
<glyph unicode="_" d="M100 -41h725v-195h-725v195z" />
<glyph unicode="`" horiz-adv-x="428" d="M90 1049v395h235v-257q-83 0 -83 -66q0 -55 114 -55v-141h-116q-55 0 -100 33q-50 37 -50 91z" />
<glyph unicode="a" horiz-adv-x="1586" d="M4 0l629 1197h294l630 -1197h-240l-137 257h-800l-134 -257h-242zM478 451h606l-294 565h-18z" />
<glyph unicode="b" horiz-adv-x="1554" d="M72 0v1197h907q175 0 277 -87q111 -90 111 -262q0 -59 -21 -124q-26 -81 -70 -98q37 -11 78 -78q53 -85 53 -192q0 -356 -388 -356h-947zM284 196h734h2q175 0 175 160q0 164 -177 165h-734v-325zM284 709h695q90 0 127 24q46 32 46 115q0 151 -173 151h-695v-290z" />
<glyph unicode="c" horiz-adv-x="1584" d="M87 596q0 281 55.5 409.5t204.5 170.5q122 37 416 37q273 0 356 -13q159 -24 229 -114q81 -103 81 -333h-212q0 151 -57 211q-48 50 -159 55l15 -1q0 -2 -142 -2h-111q-244 0 -307 -13q-100 -22 -131 -107q-26 -76 -26 -300q0 -223 28 -299q30 -83 129 -105 q61 -11 307 -11q321 0 382 31q72 39 72 231h212q0 -229 -81 -332q-70 -92 -229 -115q-83 -13 -356 -13q-292 0 -414 35q-150 42 -206 170t-56 408z" />
<glyph unicode="d" horiz-adv-x="1706" d="M90 0v1197h992q273 0 364 -174q61 -118 61 -425q0 -390 -124 -515q-85 -83 -301 -83h-992zM303 196h777q153 0 196 135q19 60 19 267q0 203 -21 266q-42 135 -194 135h-777v-803z" />
<glyph unicode="e" horiz-adv-x="1396" d="M70 0v1197h1147v-198h-934v-295h901v-196h-901v-312h934v-196h-1147z" />
<glyph unicode="f" horiz-adv-x="1349" d="M59 0v1197h1116v-198h-902v-319h868v-196h-868v-484h-214z" />
<glyph unicode="g" horiz-adv-x="1625" d="M44 609q0 283 64 408.5t223 164.5q118 31 419 31q451 0 570 -70q133 -78 133 -366h-212q0 142 -74 200q-57 44 -181 46q196 -3 196 -4q0 -3 -432 -3q-270 0 -322 -10q-107 -17 -138 -97t-31 -311t29 -308q33 -85 140 -103q57 -11 322 -12q346 0 346 -2q0 -1 -99 -3 q124 2 178 52q66 59 66 212h-558v198h770v-178q0 -236 -86 -343q-78 -94 -246 -118q-87 -13 -371 -13q-303 0 -429 35q-155 44 -216 175t-61 419z" />
<glyph unicode="h" horiz-adv-x="1634" d="M94 0v1197h213v-493h952v493h213v-1197h-213v508h-952v-508h-213z" />
<glyph unicode="i" horiz-adv-x="509" d="M118 0v940h214v-940h-214zM118 1139v231h214v-231h-214z" />
<glyph unicode="j" horiz-adv-x="1349" d="M30 471h212q0 -155 31.5 -214t114.5 -70q39 -6 229 -6q198 0 221 2q85 9 117.5 64.5t32.5 203.5v489h212v-489q0 -319 -116 -401q-94 -66 -469 -67q-362 0 -467 80q-118 90 -118 408zM988 1139v231h212v-231h-212z" />
<glyph unicode="k" horiz-adv-x="1580" d="M74 0v1197h212v-488h142l748 488h375l-888 -582l910 -615h-367l-761 512h-159v-512h-212z" />
<glyph unicode="l" horiz-adv-x="1207" d="M61 0v1197h214v-1001h885v-196h-1099z" />
<glyph unicode="m" horiz-adv-x="2132" d="M109 0v1197h340l585 -933l586 933h339v-1197h-212v999l-648 -999h-128l-648 999l-2 -999h-212z" />
<glyph unicode="n" horiz-adv-x="1739" d="M94 0v1197h283l962 -985v985h214v-1197h-292l-954 975v-975h-213z" />
<glyph unicode="o" horiz-adv-x="1621" d="M74 596q0 284 26 375q52 168 304 218q113 24 403 24q519 0 641 -125q92 -95 92 -492q0 -286 -26 -374q-52 -168 -304 -216q-113 -22 -403 -23q-519 0 -641 124q-92 92 -92 489zM286 596q0 -231 38 -313t152 -96q42 -6 331 -6q288 0 331 6q114 15 152 96.5t38 312.5 q0 233 -37 315.5t-152 98.5q-44 6 -332 6q-284 0 -331 -8q-114 -17 -152 -99t-38 -313z" />
<glyph unicode="p" horiz-adv-x="1444" d="M57 0v1197h962q175 0 266 -109q83 -102 83 -281t-86 -281q-92 -107 -268 -107h-744v-419h-213zM270 617h744q142 0 142 190q0 192 -144 192h-742v-382z" />
<glyph unicode="q" horiz-adv-x="1711" d="M63 604q0 286 27 375q50 170 303 220q114 22 403 22q519 0 643 -126q92 -94 92 -491v-48q0 -223 -22 -296l136 -86l-107 -163l-123 81q-63 -66 -277 -88q-118 -11 -342 -11q-517 0 -641 121q-92 92 -92 490zM277 604q0 -231 37 -312t153 -98q42 -6 329 -6h79 q303 0 348 35l-405 268l104 163l391 -262q4 9 4 212v23q0 214 -36 292q-38 82 -153 99q-44 7 -332 7q-283 0 -331 -7q-114 -17 -151 -100t-37 -314z" />
<glyph unicode="r" horiz-adv-x="1639" d="M89 0v1197h1056q161 0 249 -119q78 -105 78 -271q0 -240 -117 -295q116 -57 117 -209v-303h-213v303q0 57 -57 89q-46 25 -104 25h-5h-792v-417h-212zM301 615h776q105 0 143.5 43.5t38.5 148.5q0 103 -40.5 147.5t-141.5 44.5h-776v-384z" />
<glyph unicode="s" horiz-adv-x="1566" d="M74 441h221q0 -175 66 -214t394 -39q332 0 407 28q87 31 86 131q0 103 -56 130t-398 27q-421 0 -565 104q-116 85 -116 288q0 222 138 290q125 62 530 62h13q412 0 537 -99q105 -83 106 -338h-218q0 159 -66.5 195.5t-358.5 36.5q-247 0 -306 -7q-153 -22 -154 -140 q0 -105 84 -146t437 -43q366 0 471 -48q146 -70 146 -312q-1 -229 -176 -305q-133 -59 -543 -59q-445 0 -574 102q-105 83 -105 356z" />
<glyph unicode="t" horiz-adv-x="1385" d="M70 999v198h1247v-198h-517v-999h-215v999h-515z" />
<glyph unicode="u" horiz-adv-x="1519" d="M74 356v841h212v-841q0 -107 81 -151q61 -31 183 -31q1304 4 1304 5.5t-1112 1.5q-317 0 -317 -2t511 -7q120 0 179 31q81 44 82 153v841h212v-841q0 -246 -100 -304q-114 -68 -567 -69q-332 0 -330 0q-166 11 -244 83q-94 87 -94 290z" />
<glyph unicode="v" horiz-adv-x="1566" d="M15 1197h225l539 -1001l538 1001h231l-654 -1197h-231z" />
<glyph unicode="w" horiz-adv-x="2517" d="M78 1197h217l442 -977l421 977h175l420 -983l441 983h233l-551 -1197h-247l-384 898l-384 -898h-248z" />
<glyph unicode="x" horiz-adv-x="1643" d="M6 1197h306l484 -471l493 471h303l-613 -582l628 -615h-296l-508 504l-511 -504h-283l617 615z" />
<glyph unicode="y" horiz-adv-x="1606" d="M-37 1197h288l532 -541l530 541h288l-713 -724v-473h-212v473z" />
<glyph unicode="z" horiz-adv-x="1495" d="M85 0v187l951 812h-912v198h1228v-187l-942 -814h942v-196h-1267z" />
<glyph unicode="{" horiz-adv-x="651" d="M9 556v194h178v866h421v-152h-205v-1484h205v-152h-421v728h-178z" />
<glyph unicode="|" horiz-adv-x="470" d="M100 -172v1788h216v-1788h-216z" />
<glyph unicode="}" horiz-adv-x="651" d="M9 -20h205v1484h-205v152h419v-866h180v-194h-180v-728h-419v152z" />
<glyph unicode="~" horiz-adv-x="991" d="M131 1560v194q54 54 153 54q68 0 157 -31q209 -79 261 -80q81 0 155 57v-194q-70 -57 -155 -57q-66 0 -155 33q-209 78 -263 78q-103 0 -153 -54z" />
<glyph horiz-adv-x="2158" d="M68 139v1159q0 46 36 82t83 36h1769q46 0 83 -36t37 -82v-1159q0 -54 -33.5 -96.5t-86.5 -42.5h-1769q-52 0 -85.5 42.5t-33.5 96.5zM284 185h553q212 0 354 157q137 151 137 367t-137 368q-142 159 -354 158h-553l492 -330v-59l-492 330v-61l492 -328v-58l-492 327v-57 l492 -329v-61l-492 331v-57l492 -333v-59l-492 333v-639zM1426 185h476v580h-476v-580zM1426 824h476v59h-476v-59zM1426 940h476v59h-476v-59zM1426 1056h476v59h-476v-59zM1426 1176h476v59h-476v-59z" />
<glyph horiz-adv-x="1972" d="M174 722q0 345 66.5 498.5t247.5 205.5q144 41 504 40q342 0 413 -7q198 -22 288 -120q109 -118 109 -377v-212q0 -192 -122.5 -313t-314.5 -121q-63 0 -94 11q-54 22 -87 87q-61 -98 -251 -98q-185 0 -281 116q-89 109 -89 297q0 174 89 289q98 127 268 127 q142 0 214 -78v52l212 -4v-530q0 -61 2 -72q9 -31 54 -31q100 0 147 90q39 72 39 181v191q0 238 -101 288q-83 41 -495 40q-307 0 -396 -20q-131 -30 -171 -142q-35 -102 -35 -388q0 -283 37 -384q41 -111 171 -142q89 -20 394 -21q334 0 280 -1q137 7 263 66l267 76 q-70 -196 -173 -251q-161 -83 -637 -83q-362 0 -506 40q-179 50 -246 205q-66 150 -66 495zM772 728q0 -246 183 -246q179 0 179 244q0 253 -179 253q-183 0 -183 -251z" />
<glyph horiz-adv-x="3100" d="M114 1442h220l558 -1233h24l528 1233h185l528 -1233h24l558 1233h234l-663 -1442h-277l-495 1154l-500 -1154h-275z" />
<glyph horiz-adv-x="2570" d="M41 1444h221l674 -1250h32l249 463l-427 787h222l314 -583l314 583h231l-432 -790l247 -460h30l674 1250h230l-792 -1444h-255l-245 452l-248 -452h-256z" />
<glyph horiz-adv-x="2158" d="M68 139v1159q0 46 36 82t83 36h1769q46 0 83 -36t37 -82v-1159q0 -54 -33.5 -96.5t-86.5 -42.5h-1769q-52 0 -85.5 42.5t-33.5 96.5zM284 185h553q212 0 354 157q137 151 137 367t-137 368q-142 159 -354 158h-553l492 -330v-59l-492 330v-61l492 -328v-58l-492 327v-57 l492 -329v-61l-492 331v-57l492 -333v-59l-492 333v-639zM1426 185h476v580h-476v-580zM1426 824h476v59h-476v-59zM1426 940h476v59h-476v-59zM1426 1056h476v59h-476v-59zM1426 1176h476v59h-476v-59z" />
<glyph unicode="&#xa6;" horiz-adv-x="470" d="M100 -172v1788h216v-1788h-216z" />
<glyph unicode="&#xa7;" horiz-adv-x="1898" d="M270 220h206q0 -129 48 -178q39 -41 132 -42q-198 4 205 4q286 0 338 14q74 20 73 113v41q0 61 -81 85q-59 18 -166 16q-443 -6 -131 -5q-299 0 -406 44q-185 76 -185 323q0 170 89 196q-55 28 -56 212q0 223 198 283q90 28 391 28q353 0 466 -96q90 -76 90 -298h-209 q0 116 -42 163q-35 37 -120 40q89 -4 -185 -3q1560 0 -142 3q-105 2 -161 -20q-78 -30 -77 -100q0 -92 53 -118q70 -31 329 -31q299 0 392 -32q193 -63 193 -288q0 -190 -83 -231q52 -35 52 -212q0 -201 -155 -268q-124 -54 -467 -53q-388 0 -503 98q-87 74 -86 312z M512 598q0 -92 66 -129q52 -28 151 -26q949 6 165 6q-211 0 157 -8q113 -2 173 23q82 29 82 110q0 92 -48 113q-61 26 -333 26h-212q-111 0 -139 -9q-63 -22 -62 -106z" />
<glyph unicode="&#xa8;" horiz-adv-x="1602" d="M85 0v1444h1381v-196h-1167v-419h1127v-194h-1127v-441h1167v-194h-1381zM347 1627v255h235v-255h-235zM953 1627v255h234v-255h-234z" />
<glyph unicode="&#xa9;" horiz-adv-x="1979" d="M96 720q0 351 33 462q61 203 370 258q127 24 489 24t488 -22q308 -57 369 -258q33 -109 33 -464q0 -351 -33 -460q-61 -203 -369 -258q-122 -22 -488 -22q-360 0 -488 22q-310 57 -371 257q-33 107 -33 461zM312 720q0 -292 51 -400.5t200 -132.5q74 -13 425 -13 q355 0 425 11q150 24 200.5 132t50.5 403q0 401 -85 471q-92 79 -591 80q-356 0 -428 -13q-150 -22 -199 -131t-49 -407zM486 718q0 310 109 405q98 83 419 83q266 0 365 -65q126 -83 126 -330h-214q0 113 -23 152.5t-86 44.5h-168q-183 0 -218 -7q-66 -11 -83 -70 q-13 -44 -13 -213q0 -164 13 -210q18 -57 83 -70q35 -6 218 -6q159 0 203 22q74 37 74 172l214 7q0 -242 -131 -330q-105 -70 -360 -70q-321 0 -419 83q-109 92 -109 402z" />
<glyph unicode="&#xab;" horiz-adv-x="1427" d="M137 541l513 512l137 -137l-375 -375l375 -375l-137 -136zM669 545l511 511l137 -136l-375 -375l375 -375l-137 -137z" />
<glyph unicode="&#xac;" d="M100 632v193h725v-193l-175 -189v189h-550z" />
<glyph unicode="&#xad;" d="M100 632v193h725v-193h-725z" />
<glyph unicode="&#xae;" horiz-adv-x="1979" d="M96 720q0 351 33 462q61 203 370 258q127 24 489 24t488 -22q308 -57 369 -258q33 -109 33 -464q0 -351 -33 -460q-61 -203 -369 -258q-122 -22 -488 -22q-360 0 -488 22q-310 57 -371 257q-33 107 -33 461zM312 720q0 -292 51 -400.5t200 -132.5q74 -13 425 -13 q355 0 425 11q150 24 200.5 132t50.5 403q0 401 -85 471q-92 79 -591 80q-356 0 -428 -13q-150 -22 -199 -131t-49 -407zM467 303v859h820q127 0 201 -98q68 -87 69 -220q0 -133 -45 -220q6 -17 15 -37q30 -59 30 -120v-151l-216 -45v196q0 59 -94 59h-566v-255zM681 726 h554q59 0 78 15q28 25 28 103q0 68 -19.5 93t-86.5 25h-554v-236z" />
<glyph unicode="&#xb0;" horiz-adv-x="734" d="M13 953q0 198 70 251q57 44 268 44q205 0 266 -46q72 -55 72 -249q0 -196 -72 -251q-61 -44 -266 -45q-211 0 -268 45q-70 54 -70 251zM198 953q0 -90 42 -115q28 -17 111 -16q79 0 109 16q44 26 44 115q0 78 -36 105.5t-117 27.5q-79 0 -115 -26q-39 -31 -38 -107z" />
<glyph unicode="&#xb6;" horiz-adv-x="997" d="M31 1256q0 90 60 139t153 49h216v-1444h-216v1034q-90 0 -151.5 64.5t-61.5 157.5zM681 0v1444h217v-1444h-217z" />
<glyph unicode="&#xb7;" horiz-adv-x="596" d="M50 792q0 100 64.5 170t162.5 70t163.5 -71t65.5 -169t-65.5 -169t-163.5 -71q-96 0 -161.5 72t-65.5 168z" />
<glyph unicode="&#xb8;" horiz-adv-x="1318" d="M61 0v1197h1147v-198h-933v-295h901v-196h-901v-312h933v-196h-1147zM299 1320v257h237v-257h-237zM781 1320v257h235v-257h-235z" />
<glyph unicode="&#xb9;" horiz-adv-x="2897" d="M126 0v1446h315l1238 -1265v1265h216v-1446h-325l-1230 1256v-1256h-214zM2120 1171q0 198 70 253q59 44 268 44q205 0 266 -46q72 -55 72 -251q0 -194 -72 -249q-59 -44 -266 -45q-211 0 -268 43q-70 54 -70 251zM2126 497v196h670v-196h-670zM2305 1171q0 -89 42 -115 q30 -17 111 -16q79 0 109 16q44 26 44 115q0 79 -39 109q-33 24 -114 24q-79 0 -113 -26q-41 -30 -40 -107z" />
<glyph unicode="&#xba;" horiz-adv-x="2027" />
<glyph unicode="&#xbb;" horiz-adv-x="1427" d="M137 166l375 375l-375 375l138 137l512 -512l-512 -511zM669 170l374 375l-374 375l136 136l512 -511l-512 -512z" />
<glyph unicode="&#xc0;" horiz-adv-x="1933" d="M4 0l761 1444h334l763 -1444h-244l-170 321h-1030l-170 -321h-244zM514 512h840l-393 760h-54z" />
<glyph unicode="&#xc1;" horiz-adv-x="1861" d="M85 0v1444h1472v-196h-1258v-408h955q451 0 451 -421q0 -419 -451 -419h-1169zM299 194h953q109 0 173 59t64 166q0 105 -65 165.5t-170 60.5h-955v-451z" />
<glyph unicode="&#xc2;" horiz-adv-x="1865" d="M67 0v1444h1108q211 0 329 -98q129 -105 129 -312q0 -218 -165 -279q107 -33 163 -129q54 -87 54 -205q0 -421 -460 -421h-1158zM281 194h942q245 0 245 225q0 109 -68 167.5t-177 58.5h-942v-451zM281 840h894q118 0 173 37q71 46 71 157q0 214 -244 214h-894v-408z" />
<glyph unicode="&#xc3;" horiz-adv-x="1471" d="M59 0v1444h1324v-196h-1108v-1248h-216z" />
<glyph unicode="&#xc4;" horiz-adv-x="1963" d="M56 194h118q46 148 77 380q30 223 30 386v482h1455v-1248h102v-460h-214v266h-1343v-266h-225v460zM407 194h1113v1053h-1023v-287q0 -416 -90 -766z" />
<glyph unicode="&#xc5;" horiz-adv-x="1602" d="M65 0v1444h1381v-196h-1167v-419h1127v-194h-1127v-441h1167v-194h-1381z" />
<glyph unicode="&#xc6;" horiz-adv-x="2860" d="M9 0l937 741l-841 701h324l711 -604h146v604h214v-604h146l711 604h323l-839 -701l935 -741h-333l-799 643h-144v-643h-214v643h-145l-797 -643h-335z" />
<glyph unicode="&#xc7;" horiz-adv-x="1852" d="M72 502h215q0 -238 101 -288q83 -41 495 -40q290 0 368 14q235 44 234 218q0 135 -98 189q-72 41 -221 40h-593v194h593q163 0 227 35q92 50 92 185q0 120 -118 175q-89 41 -251 47q44 0 -233 0q-408 0 -493 -43q-103 -48 -103 -286h-215q0 268 104 388q89 102 284 125 q78 9 423 9q266 0 377 -14q441 -55 441 -401q0 -124 -28 -190q-35 -85 -129 -139q157 -85 157 -314q0 -198 -87.5 -291t-283.5 -119q-127 -17 -447 -16q-349 0 -423 9q-196 22 -284 124q-103 120 -104 389z" />
<glyph unicode="&#xc8;" horiz-adv-x="2035" d="M83 0v1444h215v-1267l1239 1267h316v-1444h-217v1254l-1228 -1254h-325z" />
<glyph unicode="&#xc9;" horiz-adv-x="2088" d="M94 0v1446h217v-1265l1239 1265h314v-1446h-215v1256l-1228 -1256h-327zM643 1464v194h646v-194h-646z" />
<glyph unicode="&#xca;" horiz-adv-x="1939" d="M109 0v1444h214v-583h217l873 583h371l-1014 -679l1081 -765h-357l-954 665h-217v-665h-214z" />
<glyph unicode="&#xcb;" horiz-adv-x="1964" d="M35 0v194h85q163 0 163 637v57v76q-2 52 -2 76v404h1476v-1444h-217v1248h-1043v-271q0 -977 -253 -977h-209z" />
<glyph unicode="&#xcc;" horiz-adv-x="2616" d="M120 0v1444h384l748 -1185l748 1185h384v-1444h-214v1248h-42l-809 -1248h-135l-809 1248h-40v-1248h-215z" />
<glyph unicode="&#xcd;" horiz-adv-x="1918" d="M83 0v1444h215v-613h1242v613h217v-1444h-217v637h-1242v-637h-215z" />
<glyph unicode="&#xce;" horiz-adv-x="2016" d="M76 720q0 351 33 462q61 203 370 258q127 24 489 24t488 -22q308 -57 369 -258q33 -109 33 -464q0 -351 -33 -460q-61 -203 -369 -258q-122 -22 -488 -22q-360 0 -488 22q-310 57 -371 257q-33 107 -33 461zM292 720q0 -292 51 -400.5t200 -132.5q74 -13 425 -13 q355 0 425 11q150 24 200.5 132t50.5 403q0 401 -85 471q-92 79 -591 80q-356 0 -428 -13q-150 -22 -199 -131t-49 -407z" />
<glyph unicode="&#xcf;" horiz-adv-x="1948" d="M87 0v1444h1671v-1444h-216v1248h-1241v-1248h-214z" />
<glyph unicode="&#xd0;" horiz-adv-x="1826" d="M74 0v1444h1178q410 0 410 -462q0 -212 -101 -330q-107 -126 -318 -126h-953v-526h-216zM290 720h953q203 0 203 262q0 266 -205 266h-951v-528z" />
<glyph unicode="&#xd1;" horiz-adv-x="1824" d="M58 720q0 345 66.5 498.5t245.5 205.5q146 41 506 40q349 0 423 -9q196 -22 284 -124q103 -120 103 -389h-216q0 238 -99 286q-83 42 -495 43q-307 0 -397 -21q-129 -30 -170 -142q-35 -102 -35 -388q0 -283 37 -384q41 -113 171 -142q89 -20 394 -20q408 0 493 40 q102 50 101 288h216q0 -268 -103 -388q-89 -103 -284 -125q-78 -9 -423 -9q-362 0 -506 40q-179 50 -246 205q-66 150 -66 495z" />
<glyph unicode="&#xd2;" horiz-adv-x="1608" d="M15 1248v196h1509v-196h-646v-1248h-217v1248h-646z" />
<glyph unicode="&#xd3;" horiz-adv-x="2049" d="M39 1444h296l873 -960l549 960h245l-681 -1187q-146 -257 -484 -257h-471v194h480q181 0 244 118z" />
<glyph unicode="&#xd4;" horiz-adv-x="2561" d="M87 741q0 331 129 446q102 92 353 93h561v164h217v-164h561q253 0 355 -91q127 -116 127 -448q0 -290 -96 -420q-111 -148 -386 -147h-561v-174h-217v174h-561q-277 0 -386 145q-96 127 -96 422zM301 741q0 -177 46 -261q61 -111 222 -111h561v717h-561q-164 0 -222 -94 q-46 -72 -46 -251zM1347 369h561q163 0 223 111q45 82 45 261q0 177 -46 251q-59 94 -222 94h-561v-717z" />
<glyph unicode="&#xd5;" horiz-adv-x="1915" d="M34 0l740 722l-740 722h299l604 -609l603 609h300l-741 -722l741 -722h-285l-618 613l-619 -613h-284z" />
<glyph unicode="&#xd6;" horiz-adv-x="1979" d="M113 0v1444h216v-1250h1243v1250h214v-1250h103v-460h-216q0 122 -7 161q-20 105 -94 105h-1459z" />
<glyph unicode="&#xd7;" horiz-adv-x="1881" d="M83 940v504h215v-504q0 -116 99 -179q83 -54 207 -54h872v737h214v-1444h-214v512h-872q-218 0 -360 103q-161 114 -161 325z" />
<glyph unicode="&#xd8;" horiz-adv-x="2616" d="M168 0v1444h216v-1250h802v1250h216v-1250h801v1250h217v-1444h-2252z" />
<glyph unicode="&#xd9;" horiz-adv-x="2651" d="M163 0v1444h214v-1250h803v1250h215v-1250h803v1250h216v-1250h103v-460h-214q0 124 -7 163q-20 103 -98 103h-2035z" />
<glyph unicode="&#xda;" horiz-adv-x="2077" d="M41 1248v196h480v-528h957q209 0 315 -126q100 -116 100 -328q0 -462 -410 -462h-1178v1248h-264zM521 194h953q203 0 203 268q0 259 -201 258h-955v-526z" />
<glyph unicode="&#xdb;" horiz-adv-x="2389" d="M128 0v1444h214v-528h955q417 0 417 -454q0 -462 -417 -462h-1169zM342 194h955q203 0 203 268q0 259 -203 258h-955v-526zM2004 0v1444h214v-1444h-214z" />
<glyph unicode="&#xdc;" horiz-adv-x="1881" d="M106 0v1444h214v-528h953q419 0 419 -454q0 -462 -410 -462h-1176zM320 194h953q205 0 205 268q0 259 -203 258h-955v-526z" />
<glyph unicode="&#xdd;" horiz-adv-x="1881" d="M65 502h214q0 -238 100 -288q85 -41 497 -40q406 0 496 64q105 74 106 397h-986v194h986q0 227 -63 323q-57 87 -198 107q-66 11 -341 12q-410 0 -495 -43q-102 -48 -102 -286h-214q0 268 103 388q87 102 283 125q78 9 425 9q537 0 681 -136q135 -130 135 -608 q0 -473 -135 -602q-146 -139 -681 -138q-349 0 -425 9q-196 22 -283 124q-103 120 -103 389z" />
<glyph unicode="&#xde;" horiz-adv-x="2533" d="M93 0v1444h216v-628h258q0 425 142 532q153 116 750 116q362 0 488 -22q310 -57 369 -258q33 -109 33 -464q0 -351 -33 -460q-59 -203 -369 -258q-122 -22 -488 -22q-386 0 -497 16q-209 33 -295 161q-100 142 -100 465h-258v-622h-216zM783 720q0 -292 51 -400.5 t200 -132.5q74 -13 425 -13q355 0 425 11q150 24 200.5 132t50.5 403q0 401 -85 471q-90 79 -591 80q-356 0 -428 -13q-150 -22 -199 -131t-49 -407z" />
<glyph unicode="&#xdf;" horiz-adv-x="1951" d="M48 0v355q0 181 189 260q-114 48 -157 148q-31 76 -32 219q0 198 93 322q102 140 291 140h1297v-1444h-214v523h-1016q-85 0 -155 -41q-81 -48 -81 -127v-355h-215zM263 982q0 -140 60 -202.5t196 -62.5h996v531h-996q-118 0 -175 -40q-81 -59 -81 -226z" />
<glyph unicode="&#xe0;" horiz-adv-x="1593" d="M2 0l629 1197h294l630 -1197h-240l-137 257h-800l-134 -257h-242zM476 451h606l-294 565h-18z" />
<glyph unicode="&#xe1;" horiz-adv-x="1525" d="M59 0v1197h1219v-198h-1004v-286h742q382 -1 382 -357t-382 -356h-957zM274 196h740q170 -1 170 160q0 159 -168 159h-742v-319z" />
<glyph unicode="&#xe2;" horiz-adv-x="1530" d="M46 0v1197h907q175 0 277 -87q109 -90 109 -262q0 -59 -20 -124q-26 -81 -68 -98q37 -11 77 -78q54 -85 54 -192q0 -356 -388 -356h-948zM259 196h733q175 -1 175 160q0 159 -175 159h-733v-319zM259 713h694q87 0 126 24q48 30 48 111q0 151 -174 151h-694v-286z" />
<glyph unicode="&#xe3;" horiz-adv-x="1216" d="M41 0v1197h1099v-198h-885v-999h-214z" />
<glyph unicode="&#xe4;" horiz-adv-x="1608" d="M37 196h100q81 257 81 594v407h1204v-1001h82v-408h-213v212h-1032v-212h-222v408zM366 196h842v803h-777v-209q0 -332 -65 -594z" />
<glyph unicode="&#xe5;" horiz-adv-x="1318" d="M41 0v1197h1147v-198h-933v-295h901v-196h-901v-312h933v-196h-1147z" />
<glyph unicode="&#xe6;" horiz-adv-x="2334" d="M0 0l775 615l-696 582h323l569 -484h87v484h212v-484h89l569 484h323l-696 -582l777 -615h-336l-639 515h-87v-515h-212v515h-87l-639 -515h-332z" />
<glyph unicode="&#xe7;" horiz-adv-x="1519" d="M50 790q0 209 93 309q76 81 240 103q79 11 336 11q214 0 308 -13q366 -48 366 -341q0 -205 -102 -263q102 -57 102 -253q0 -166 -72 -244.5t-239 -100.5q-105 -15 -363 -15q-399 0 -521 59q-144 70 -144 296h209q0 -124 105 -150q31 -7 214 -7h137q236 0 279 6 q183 30 182 156q0 100 -70 139q-52 26 -162 26h-493v196h493q114 0 160 22q72 33 72 133q0 126 -182 153q-31 4 -279 4q-355 0 -216 3q-116 -4 -170 -44q-70 -55 -70 -185h-213z" />
<glyph unicode="&#xe8;" horiz-adv-x="1667" d="M58 0v1197h214v-985l962 985h282v-1197h-212v973l-955 -973h-291z" />
<glyph unicode="&#xe9;" horiz-adv-x="1708" d="M67 0v1199h212v-985l962 985h283v-1199h-213v975l-954 -975h-290zM506 1171v197h558v-197h-558z" />
<glyph unicode="&#xea;" horiz-adv-x="1588" d="M78 0v1197h214v-468h144l702 468h367l-842 -565l892 -632h-354l-765 532h-144v-532h-214z" />
<glyph unicode="&#xeb;" horiz-adv-x="1610" d="M21 0v196h88q111 0 111 474v26q0 26 -2 78v77v346h1221v-1197h-214v999h-794v-198q0 -801 -222 -801h-188z" />
<glyph unicode="&#xec;" horiz-adv-x="2132" d="M89 0v1197h340l585 -933l586 933h339v-1197h-212v999l-648 -999h-128l-648 999l-2 -999h-212z" />
<glyph unicode="&#xed;" horiz-adv-x="1571" d="M58 0v1197h214v-493h951v493h214v-1197h-214v508h-951v-508h-214z" />
<glyph unicode="&#xee;" horiz-adv-x="1650" d="M54 596q0 284 26 375q52 168 304 218q113 24 403 24q519 0 641 -125q92 -95 92 -492q0 -286 -26 -374q-52 -168 -304 -216q-113 -22 -403 -23q-519 0 -641 124q-92 92 -92 489zM266 596q0 -231 38 -313t152 -96q42 -6 331 -6q288 0 331 6q114 15 152 96.5t38 312.5 q0 233 -37 315.5t-152 98.5q-44 6 -332 6q-284 0 -331 -8q-114 -17 -152 -99t-38 -313z" />
<glyph unicode="&#xef;" horiz-adv-x="1595" d="M61 0v1197h1378v-1197h-214v999h-950v-999h-214z" />
<glyph unicode="&#xf0;" horiz-adv-x="1497" d="M50 0v1197h962q175 0 266 -109q83 -102 83 -281t-86 -281q-92 -107 -268 -107h-744v-419h-213zM263 617h744q140 0 140 190q0 192 -142 192h-742v-382z" />
<glyph unicode="&#xf1;" horiz-adv-x="1497" d="M37 596q0 281 56.5 409.5t204.5 170.5q124 37 415 37q271 0 357 -13q159 -24 229 -114q83 -105 83 -333h-215q0 151 -57 211q-46 50 -157 55q76 -4 -240 -3q-242 0 -306 -13q-100 -22 -130 -107q-28 -76 -27 -300q0 -223 27 -299q30 -83 130 -105q63 -11 306 -11 q323 0 382 31q72 39 72 231h215q0 -229 -82 -332q-72 -92 -230 -115q-81 -13 -357 -13q-292 0 -414 35q-148 42 -205 170t-57 408z" />
<glyph unicode="&#xf2;" horiz-adv-x="1324" d="M4 999v198h1248v-198h-519v-999h-212v999h-517z" />
<glyph unicode="&#xf3;" horiz-adv-x="1674" d="M-3 1197h290l688 -757l429 757h244l-560 -983q-61 -105 -160 -159.5t-248 -54.5h-397v196h406q129 0 170 70z" />
<glyph unicode="&#xf4;" horiz-adv-x="2086" d="M59 613q0 271 113 371q90 81 296 82h428v131h212v-131h431q209 0 295 -78q111 -102 111 -375q0 -240 -83 -349q-96 -126 -323 -125h-431v-139h-212v139h-428q-229 0 -324 123q-85 109 -85 351zM274 613q0 -137 29 -194q44 -83 165 -83h428v532h-428q-124 0 -165 -68 q-30 -50 -29 -187zM1108 336h431q120 0 162 83q30 57 30 194q0 135 -30 187q-41 68 -162 68h-431v-532z" />
<glyph unicode="&#xf5;" horiz-adv-x="1588" d="M7 0l615 598l-615 599h298l476 -480l475 480h299l-617 -599l617 -598h-286l-488 482l-488 -482h-286z" />
<glyph unicode="&#xf6;" horiz-adv-x="1619" d="M83 0v1197h213v-1001h953v1001h212v-1001h81v-408h-212q0 105 -2 122q-11 90 -59 90h-1186z" />
<glyph unicode="&#xf7;" horiz-adv-x="1543" d="M58 772v425h214v-425q0 -166 225 -166h676v591h212v-1197h-212v410h-676q-179 0 -301 90q-139 100 -138 272z" />
<glyph unicode="&#xf8;" horiz-adv-x="2132" d="M128 0v1197h212v-1001h600v1001h215v-1001h602v1001h212v-1197h-1841z" />
<glyph unicode="&#xf9;" horiz-adv-x="2158" d="M122 0v1197h213v-1001h602v1001h212v-1001h600v1001h214v-1001h83v-408h-212q0 107 -2 123q-11 89 -63 89h-1647z" />
<glyph unicode="&#xfa;" horiz-adv-x="1700" d="M24 999v198h427v-425h744q174 0 264.5 -102.5t90.5 -279.5q0 -181 -83 -281q-90 -109 -266 -109h-962v999h-215zM451 196h742q142 0 142 194q0 187 -142 186h-742v-380z" />
<glyph unicode="&#xfb;" horiz-adv-x="1950" d="M94 0v1197h215v-425h742q177 0 268 -105q87 -98 87 -277q0 -390 -355 -390h-957zM309 196h742q142 0 142 194q0 187 -142 186h-742v-380zM1596 0v1197h212v-1197h-212z" />
<glyph unicode="&#xfc;" horiz-adv-x="1542" d="M74 0v1197h213v-425h742q356 0 356 -382q0 -390 -349 -390h-962zM287 196h742q144 0 144 194q0 187 -142 186h-744v-380z" />
<glyph unicode="&#xfd;" horiz-adv-x="1542" d="M41 443h214q0 -192 72 -231q59 -31 384 -31q323 0 388 42q74 50 74 285h-787v196h787q0 168 -52 236q-46 61 -153 72q-31 4 -257 4q-316 0 -240 3q-111 -6 -159 -55q-57 -59 -57 -211h-214q0 227 83 331q72 92 233 116q85 13 354 13q436 0 560 -120q114 -111 114 -497 t-112 -494q-124 -118 -562 -119q-273 0 -356 13q-159 24 -231 115q-83 103 -83 332z" />
<glyph unicode="&#xfe;" horiz-adv-x="2064" d="M67 0v1197h212v-503h168q0 331 120 420q133 100 613 99q519 0 641 -125q93 -95 93 -492q0 -286 -26 -374q-52 -168 -305 -216q-113 -22 -403 -23q-303 0 -397 15q-174 26 -249 129q-87 114 -87 370h-168v-497h-212zM660 596q0 -231 37.5 -313t152.5 -96q42 -6 330 -6 t331 6q114 15 152 96.5t38 312.5q0 233 -37 315.5t-151 98.5q-44 6 -333 6q-284 0 -330 -8q-114 -17 -152 -99t-38 -313z" />
<glyph unicode="&#xff;" horiz-adv-x="1597" d="M30 0v303q0 150 118 209q-118 57 -118 295q0 164 79 271q89 118 248 119h1058v-1197h-212v417h-793q-63 0 -111 -25q-57 -31 -57 -89v-303h-212zM242 807q0 -103 40.5 -147.5t144.5 -44.5h776v384h-776q-103 0 -144 -44.5t-41 -147.5z" />
<glyph unicode="&#x2c6;" horiz-adv-x="2107" d="M57 0v877l599 -443v79l-599 444v79l599 -441v79l-599 441v82l599 -444v80l-599 443v79l599 -441v80l-599 441h671q270 0 441 -227q159 -207 159 -486q0 -281 -157 -491q-172 -231 -443 -231h-671zM1448 0v796h580v-796h-580zM1448 877v80h580v-80h-580zM1448 1036v79h580 v-79h-580zM1448 1197v79h580v-79h-580zM1448 1355v80h580v-80h-580z" />
<glyph unicode="&#x2dc;" horiz-adv-x="2158" d="M68 139v1159q0 46 36 82t83 36h1769q46 0 83 -36t37 -82v-1159q0 -54 -33.5 -96.5t-86.5 -42.5h-1769q-52 0 -85.5 42.5t-33.5 96.5zM284 185h553q212 0 354 157q137 151 137 367t-137 368q-142 159 -354 158h-553l492 -330v-59l-492 330v-61l492 -328v-58l-492 327v-57 l492 -329v-61l-492 331v-57l492 -333v-59l-492 333v-639zM1426 185h476v580h-476v-580zM1426 824h476v59h-476v-59zM1426 940h476v59h-476v-59zM1426 1056h476v59h-476v-59zM1426 1176h476v59h-476v-59z" />
<glyph unicode="&#x2000;" horiz-adv-x="967" />
<glyph unicode="&#x2001;" horiz-adv-x="1934" />
<glyph unicode="&#x2002;" horiz-adv-x="967" />
<glyph unicode="&#x2003;" horiz-adv-x="1934" />
<glyph unicode="&#x2004;" horiz-adv-x="644" />
<glyph unicode="&#x2005;" horiz-adv-x="483" />
<glyph unicode="&#x2006;" horiz-adv-x="322" />
<glyph unicode="&#x2007;" horiz-adv-x="322" />
<glyph unicode="&#x2008;" horiz-adv-x="241" />
<glyph unicode="&#x2009;" horiz-adv-x="386" />
<glyph unicode="&#x200a;" horiz-adv-x="107" />
<glyph unicode="&#x2010;" d="M100 632v193h725v-193h-725z" />
<glyph unicode="&#x2011;" d="M100 632v193h725v-193h-725z" />
<glyph unicode="&#x2012;" d="M100 632v193h725v-193h-725z" />
<glyph unicode="&#x2013;" d="M100 632v193h725v-193h-725z" />
<glyph unicode="&#x2014;" horiz-adv-x="1045" d="M0 632v193h1016v-193h-1016z" />
<glyph unicode="&#x2018;" horiz-adv-x="400" d="M54 925v382q0 52 48 94.5t101 42.5h116v-153q-114 0 -114 -56q0 -68 83 -68v-242h-234z" />
<glyph unicode="&#x2019;" horiz-adv-x="424" d="M54 925v141q114 0 114 55q0 66 -83 66v257h234v-395q0 -55 -46 -89.5t-103 -34.5h-116z" />
<glyph unicode="&#x201a;" horiz-adv-x="991" d="M323 -118q114 0 115 55q0 66 -83 67v256h234v-395q0 -55 -46 -89.5t-102 -34.5h-118v141z" />
<glyph unicode="&#x201c;" horiz-adv-x="764" d="M54 925v382q0 52 48 94.5t101 42.5h116v-153q-114 0 -114 -56q0 -68 83 -68v-242h-234zM430 925v382q0 52 48 94.5t102 42.5h116v-153q-114 0 -114 -56q0 -68 85 -68v-242h-237z" />
<glyph unicode="&#x201d;" horiz-adv-x="764" d="M54 925v141q114 0 114 55q0 66 -83 66v257h234v-395q0 -55 -46 -89.5t-103 -34.5h-116zM430 925v141q114 0 115 55q0 66 -83 66v257h234v-395q0 -55 -46 -89.5t-103 -34.5h-117z" />
<glyph unicode="&#x201e;" horiz-adv-x="764" d="M54 -120q114 0 114 55q0 66 -83 67v257h234v-396q0 -55 -46 -89t-103 -34h-116v140zM430 -120q114 0 115 55q0 66 -83 67v257h234v-396q0 -55 -46 -89t-103 -34h-117v140z" />
<glyph unicode="&#x2022;" horiz-adv-x="596" d="M50 792q0 100 64.5 170t162.5 70t163.5 -71t65.5 -169t-65.5 -169t-163.5 -71q-96 0 -161.5 72t-65.5 168z" />
<glyph unicode="&#x202f;" horiz-adv-x="386" />
<glyph unicode="&#x2039;" d="M135 541l513 512l137 -137l-375 -375l375 -375l-137 -136z" />
<glyph unicode="&#x203a;" d="M137 166l375 375l-375 375l138 137l512 -512l-512 -511z" />
<glyph unicode="&#x205f;" horiz-adv-x="483" />
<glyph unicode="&#x2122;" horiz-adv-x="1732" d="M122 1379v119h578v-119h-227v-435h-124v435h-227zM737 944v554h172l251 -396l247 396h172v-554h-126v397l-256 -397h-76l-259 397v-397h-125z" />
<glyph unicode="&#x25fc;" horiz-adv-x="1200" d="M0 0v1200h1200v-1200h-1200z" />
</font>
</defs>
</svg>
