<?xml version="1.0" standalone="no"?>
<!DOCTYPE svg PUBLIC "-//W3C//DTD SVG 1.1//EN" "http://www.w3.org/Graphics/SVG/1.1/DTD/svg11.dtd" >
<svg xmlns="http://www.w3.org/2000/svg">
<metadata></metadata>
<defs>
<font id="micrabold" horiz-adv-x="2062" >
<font-face units-per-em="2048" ascent="1638" descent="-410" />
<missing-glyph horiz-adv-x="1060" />
<glyph horiz-adv-x="2048" />
<glyph horiz-adv-x="2048" />
<glyph unicode="&#xd;" horiz-adv-x="2048" />
<glyph unicode=" "  horiz-adv-x="1060" />
<glyph unicode="&#x09;" horiz-adv-x="1060" />
<glyph unicode="&#xa0;" horiz-adv-x="1060" />
<glyph unicode="!" horiz-adv-x="778" d="M160 -20v399h450v-399h-450zM180 520v965h410v-965h-410z" />
<glyph unicode="&#x22;" horiz-adv-x="729" d="M94 1450h228l-48 -465h-135zM422 1450h227l-47 -465h-135z" />
<glyph unicode="#" horiz-adv-x="1296" d="M25 465l34 164h283l51 205h-280l47 163h274l66 267h162l-68 -267h254l70 267h159l-67 -267h266l-37 -163h-272l-52 -205h269l-41 -164h-269l-67 -277h-164l72 277h-254l-76 -277h-162l76 277h-274zM502 629h254l53 205h-256z" />
<glyph unicode="$" horiz-adv-x="2009" d="M104 494h451q0 -84 13 -108q19 -37 97 -47q65 -9 318 -9q306 0 365 10q51 9 59 37q4 12 4 43q0 49 -22.5 70.5t-112.5 35.5t-293 21q-159 6 -251.5 10.5t-194.5 16t-153.5 24.5t-107 39.5t-77.5 58t-43 82.5t-26 110.5t-5 145.5q0 63 7 116t22.5 94.5t34.5 74t49.5 57 t59.5 42t73 29t81.5 18.5t94 10.5t102 4.5t111.5 1v149h430v-149q110 0 175 -2.5t142.5 -13t120 -31t87.5 -57t66.5 -91t35.5 -132t14 -181.5h-451q0 81 -13 104q-19 35 -98 44q-61 7 -294 7q-284 0 -341 -12q-47 -9 -55 -38q-4 -13 -4 -44q0 -26 3 -40t18.5 -28.5t38.5 -21 t73 -13.5t111.5 -10.5t163.5 -7.5q121 -5 203 -9.5t168.5 -12.5t141 -17.5t112 -25t90 -34t65 -46t48.5 -60t29.5 -77t17.5 -95t4 -116.5q0 -61 -5.5 -111.5t-18.5 -91.5t-30 -73t-44.5 -57t-56.5 -42.5t-73 -30t-86.5 -20.5t-103.5 -12t-118 -5.5t-136 -1.5v-153h-430v153 q-100 0 -149.5 1t-124.5 5t-109.5 14t-85 26.5t-72 43.5t-50 65t-39 90.5t-18.5 120t-8 153.5z" />
<glyph unicode="%" horiz-adv-x="2179" d="M188 -23v244l1823 1262v-256zM260 1155q0 62 1 99t8.5 74t14 55t29.5 36.5t42.5 24.5t64.5 11.5t84.5 6t113.5 0.5q73 0 113.5 -0.5t84.5 -6.5t64.5 -12t43 -24t29.5 -36.5t14.5 -55.5t8.5 -73.5t1 -98.5q0 -49 -0.5 -81t-5 -65t-8 -51.5t-16 -38.5t-22.5 -29t-35 -19 t-45 -13t-60 -6t-74 -3.5t-93 -0.5q-74 0 -113.5 0.5t-84.5 6t-64.5 11.5t-42.5 24.5t-29.5 36.5t-14 55t-8.5 74t-1 99zM485 1155q0 -46 31 -59t105 -13q73 0 102 13t29 59q0 45 -32 58.5t-99 13.5q-68 0 -102 -13.5t-34 -58.5zM1217 307q0 62 1 98.5t8 73.5t14.5 55 t29.5 36.5t42.5 24.5t65 12t84.5 6.5t113 0.5q59 0 93 -0.5t74 -3.5t60.5 -6t45.5 -12.5t35.5 -19t23 -29t16.5 -38.5t8.5 -51.5t5 -64t0.5 -80.5t-0.5 -81t-5 -65t-8.5 -52t-16.5 -38.5t-23.5 -29.5t-35 -19.5t-45 -13t-61 -6.5t-74.5 -3.5t-92.5 -0.5q-73 0 -113 0.5 t-84.5 6.5t-65 12t-42.5 24.5t-29.5 36.5t-14.5 55t-8 73.5t-1 98.5zM1442 307q0 -46 30 -58.5t105 -12.5t105 12.5t30 58.5q0 45 -33.5 58.5t-101.5 13.5t-101.5 -13.5t-33.5 -58.5z" />
<glyph unicode="&#x26;" horiz-adv-x="2453" d="M209 487q0 153 55 240t176 141q-46 59 -57.5 105t-11.5 184q0 54 5 92t20.5 73t39.5 57.5t65.5 42.5t95 31t133 18.5t173.5 10.5t221 3q133 0 231.5 -3t181.5 -10.5t139.5 -18.5t101 -30.5t70 -42.5t42 -58t22 -73.5t5.5 -91.5v-153h-451q0 84 -12 106q-17 34 -88 42 q-49 5 -225 5q-191 0 -255.5 -9.5t-64.5 -41.5q0 -57 8 -75t45 -36l740 -370q24 35 24 94v80h420v-201q0 -3 1.5 -33t0.5 -46.5t-8.5 -39.5t-23.5 -35l321 -165l-190 -277l-263 135q-91 -95 -268 -126t-504 -31q-168 0 -280 2.5t-214.5 13.5t-163 24.5t-112.5 43.5t-76.5 63 t-42.5 90.5t-22 117.5t-4 152zM659 487q0 -116 68 -137.5t397 -21.5q141 0 211 6t107 24l-586 271q-10 5 -31 17t-34.5 17t-28.5 5q-43 0 -73 -52.5t-30 -128.5z" />
<glyph unicode="'" horiz-adv-x="417" d="M94 1450h228l-48 -465h-135z" />
<glyph unicode="(" horiz-adv-x="802" d="M74 754q0 174 11.5 313t29.5 232.5t47 161.5t57.5 105.5t67.5 59t71 27.5t74 6h205v-266h-72q-51 0 -78.5 -53.5t-41 -191.5t-13.5 -394t13.5 -394.5t41 -192.5t78.5 -54h72v-267h-205q-42 0 -74 6t-71 28t-67.5 60t-57.5 106t-47 162t-29.5 233t-11.5 313z" />
<glyph unicode=")" horiz-adv-x="843" d="M90 113h72q51 0 78.5 54t41 192.5t13.5 394.5t-13.5 394t-41 191.5t-78.5 53.5h-72v266h205q42 0 74 -6t71 -27.5t67.5 -59t57.5 -105.5t47 -161.5t29.5 -232.5t11.5 -313t-11.5 -313t-29.5 -233t-47 -162t-57.5 -106t-67.5 -60t-71 -28t-74 -6h-205v267z" />
<glyph unicode="*" horiz-adv-x="704" d="M74 984q-8 48 44 76q16 8 36 13q33 9 78.5 21.5t70.5 19.5t29 8q-4 1 -29.5 6t-69 14t-81.5 17q-66 12 -78 62q-9 40 22 70q37 35 87 5q16 -10 32 -26q27 -29 60 -62t52 -51l19 -18q-28 84 -59 176q-23 72 23 105q35 26 74 8q46 -22 39 -87l-5 -26l-53 -176 q57 67 120 137q50 55 102 33q37 -16 43 -55q8 -49 -43 -76q-16 -8 -36 -13l-174 -43q88 -21 182 -39q68 -14 78 -66q8 -41 -24 -69q-38 -35 -89 -3q-15 10 -30 26q-27 31 -59 64.5t-50 50.5l-18 18q20 -84 51 -178q23 -71 -23 -104q-35 -26 -74 -8q-46 21 -39 86l5 26 q18 61 55 172q-5 -6 -23.5 -26t-47.5 -52t-52 -57q-51 -56 -103 -33q-36 15 -42 54z" />
<glyph unicode="+" horiz-adv-x="1155" d="M137 520v283h295v297h277v-297h321v-283h-321v-295h-277v295h-295z" />
<glyph unicode="," horiz-adv-x="747" d="M109 -76h112q23 0 38 14.5t15 36.5q0 62 -36 62h-99v379h451v-502q0 -91 -53 -153t-131 -62h-216q-47 0 -81 10v215z" />
<glyph unicode="-" horiz-adv-x="2086" d="M293 520v283h1495v-283h-1495z" />
<glyph unicode="." horiz-adv-x="739" d="M139 -23v400h451v-400h-451z" />
<glyph unicode="/" horiz-adv-x="692" d="M16 -182l455 1673h227l-454 -1673h-228z" />
<glyph unicode="0" horiz-adv-x="2070" d="M145 733q0 138 3 219t17 170t36.5 134.5t69.5 94t106.5 68.5t157 38.5t212 23t279.5 4.5t279.5 -4.5t212 -23t157 -38.5t106.5 -68.5t69.5 -94t36.5 -134.5t17 -170t3 -219t-2.5 -220.5t-17 -171t-37 -134t-69.5 -94t-106.5 -68t-157.5 -38t-212 -23t-279 -4.5 q-131 0 -228.5 3t-184.5 14t-147 22.5t-112 39.5t-83.5 53.5t-56.5 75.5t-37 95t-20.5 123t-10 147.5t-1.5 179.5zM596 733q0 -66 1.5 -107t9 -84t19 -66.5t34.5 -47.5t52.5 -35t76.5 -20.5t102.5 -12t134.5 -2.5t134.5 2.5t102.5 12t76.5 20.5t52.5 35t34.5 47.5t19 66.5 t9 84t1.5 107t-1.5 106.5t-9 83t-19 66.5t-34.5 47.5t-52.5 34.5t-76.5 20.5t-102.5 12t-134.5 2.5t-134.5 -2.5t-102.5 -12t-76.5 -20.5t-52.5 -34.5t-34.5 -47.5t-19 -66.5t-9 -83t-1.5 -106.5z" />
<glyph unicode="1" horiz-adv-x="2072" d="M379 993l522 471h684v-1464h-450v1085h-70l-447 -391z" />
<glyph unicode="2" horiz-adv-x="2064" d="M176 0v451q0 93 36.5 161.5t103.5 114.5t177.5 75.5t242 45t313.5 22.5q278 11 342.5 28t64.5 87q0 62 -12 80q-21 29 -116 36q-66 5 -281 5q-85 0 -138.5 -0.5t-103 -5t-75.5 -7t-49.5 -15t-31.5 -20.5t-14.5 -31.5t-7 -40.5t-0.5 -54h-430q0 86 1.5 143.5t11.5 115.5 t20 92.5t39 69.5t55.5 53t82.5 35.5t107 24t142 12t174 6.5t217 1q144 0 247 -3t192 -13.5t146.5 -24.5t104 -40.5t71.5 -57t41.5 -79t21.5 -101.5t5 -130q0 -86 -7.5 -150t-31.5 -115.5t-50.5 -86.5t-82 -62.5t-107.5 -43.5t-147 -29t-179.5 -20t-223.5 -15 q-105 -6 -167.5 -11t-114.5 -13t-75.5 -15.5t-39.5 -22.5t-19.5 -30.5t-3.5 -42.5h1228v-379h-1679z" />
<glyph unicode="3" horiz-adv-x="2064" d="M193 358v185h419q0 -96 13 -124q19 -40 91 -51q62 -10 298 -10q297 0 358 11q55 10 65 41q5 14 5 55q0 55 -13 71q-21 27 -124 33q-68 4 -291 4h-176v328h178q283 0 341 11q51 10 60 41q4 13 4 51q0 53 -13 68q-21 26 -126 31q-64 3 -266 3q-256 0 -316 -11 q-63 -12 -78 -51q-10 -24 -10 -102h-419v164q0 53 8 97.5t26.5 79.5t41 62.5t59.5 48.5t73.5 36t92 25t105.5 16t124 9t137 4t154 1q119 0 212 -2.5t172 -10.5t137 -17t105 -27t78.5 -36t55 -48.5t36 -59t20 -74t9.5 -87t2 -103.5q0 -221 -143 -289q91 -21 127.5 -84 t36.5 -190q0 -85 -4 -140.5t-20 -109t-39 -84.5t-70.5 -60t-104.5 -42.5t-150.5 -24t-199.5 -13.5t-260 -3q-91 0 -154 1t-137 4t-124 9t-105.5 16.5t-92 25t-73.5 35.5t-59.5 48.5t-41 62.5t-26.5 79t-8 97z" />
<glyph unicode="4" horiz-adv-x="2066" d="M82 285v573l811 606h756v-852h266v-327h-266v-285h-451v285h-1116zM475 612h723v473h-111l-612 -432v-41z" />
<glyph unicode="5" horiz-adv-x="2066" d="M162 326v145h450q0 -71 13 -92q20 -32 107 -39q62 -6 282 -6q293 0 355.5 24.5t62.5 151.5q0 85 -13 110q-19 37 -96 48q-63 8 -309 8q-286 0 -342 -10q-48 -9 -56 -38q-4 -12 -4 -44h-407v880h1595v-327h-1198v-224q87 50 213.5 70.5t341.5 20.5q109 0 173.5 -1 t141.5 -5t118.5 -10.5t91.5 -20t73.5 -31t51 -46.5t38 -62t21.5 -82.5t13.5 -104t2.5 -129.5q0 -92 -4.5 -154t-21 -121t-41.5 -94t-73 -67t-107.5 -48t-153.5 -28.5t-203.5 -16t-263.5 -3.5q-137 0 -235.5 2.5t-188.5 9.5t-149.5 18t-111 30t-80.5 44t-50 61t-29 79.5 t-8 101.5z" />
<glyph unicode="6" d="M203 733q0 119 1.5 199t11.5 159t18.5 127t37 95t51 71t76.5 46.5t97.5 30.5t130.5 15t158.5 8t197.5 1q166 0 282 -2.5t210.5 -16.5t152 -23.5t100.5 -44t62.5 -57t31 -83.5t12.5 -101.5t1 -132.5h-420q0 78 -87 95.5t-374 17.5q-66 0 -105 -0.5t-79 -5t-59.5 -9.5 t-39.5 -19t-27 -27.5t-13 -42t-7 -55.5t-1 -73q0 -7 -16 -39.5t-17 -38.5q66 66 200.5 90.5t372.5 24.5q146 0 245 -7.5t178 -29t124 -54t75 -89t40 -127t10 -174.5q0 -67 -3.5 -118.5t-13.5 -97t-23 -79t-37 -61.5t-50.5 -46.5t-68.5 -33.5t-86 -23t-107.5 -13.5t-128.5 -7 t-154 -1.5q-161 0 -252 0.5t-200 8.5t-162.5 14.5t-119.5 31.5t-92 46.5t-60 71.5t-42 94t-19 127.5t-12 158.5t-1 200zM623 461q0 -25 2 -42t11.5 -31.5t20 -23.5t35 -16.5t48.5 -10.5t70 -5.5t90 -3t116 -0.5q97 0 150 1t105 6t74.5 12.5t41.5 23.5t23.5 36.5t4.5 53.5 t-4.5 53.5t-23.5 36.5t-41.5 23.5t-74.5 12.5t-105 6t-150 1q-72 0 -116 -0.5t-90 -3t-70 -5.5t-48.5 -10.5t-35 -16.5t-20 -23.5t-11.5 -31.5t-2 -42z" />
<glyph unicode="7" horiz-adv-x="2068" d="M201 1085v379h1614v-358l-830 -1106h-557l819 1085h-1046z" />
<glyph unicode="8" d="M199 457q0 123 48.5 194.5t133.5 96.5q-76 19 -120 100t-44 176q0 83 6 142t25.5 109t43.5 81.5t74.5 56.5t103.5 38t144.5 21.5t183.5 10.5t234 2q113 0 191 -1.5t157 -6t130 -11.5t102 -21t80.5 -31t58 -44.5t42 -59t24.5 -76t14.5 -94.5t3.5 -116q0 -63 -15.5 -119 t-50.5 -100t-86 -57q172 -50 172 -291q0 -70 -2 -118.5t-11.5 -96.5t-21 -78.5t-37.5 -60.5t-55 -46.5t-79 -32.5t-103 -23t-135.5 -12.5t-167 -7t-205.5 -1.5q-122 0 -209 1.5t-170.5 7t-138 13t-106.5 23t-82 32.5t-57 46.5t-39.5 60.5t-22 78.5t-12 96.5t-2.5 118z M618 457q0 -91 62.5 -110t345.5 -19t346.5 19t63.5 110q0 89 -63.5 108t-346.5 19q-284 0 -346 -18t-62 -109zM637 1024q0 -80 59.5 -96.5t331.5 -16.5q271 0 329 16t58 97q0 80 -59 96.5t-330 16.5q-272 0 -330.5 -16.5t-58.5 -96.5z" />
<glyph unicode="9" horiz-adv-x="2068" d="M205 440h420q0 -78 86 -95t374 -17q67 0 105.5 0.5t78.5 5t60 9.5t40 19t26.5 27.5t13 41.5t7.5 55t1 73q0 8 16 41t17 37q-66 -66 -200.5 -90.5t-372.5 -24.5q-109 0 -190 4t-151 15.5t-118 28t-87 44.5t-61.5 62t-38 84.5t-21 108t-5.5 135.5q0 67 3.5 118.5t13.5 97 t23 79t37 61.5t50.5 46.5t68.5 33.5t86 23t107.5 13.5t128.5 7t154 1.5q160 0 251.5 -0.5t200.5 -8.5t162.5 -15t119.5 -32t92 -46t59.5 -71.5t42 -94.5t19.5 -127.5t12 -158.5t1 -200q0 -119 -1.5 -199t-11.5 -159t-18.5 -127t-37 -94.5t-50.5 -70.5t-76.5 -46.5t-97.5 -31 t-130.5 -15t-159 -7.5t-197.5 -1q-165 0 -280 2.5t-209.5 16t-152.5 23.5t-101 44t-63 57.5t-31.5 83t-13 101.5t-1.5 132zM625 1004q0 -33 4.5 -53.5t23.5 -36.5t41.5 -24t74 -13t105.5 -6t150 -1q72 0 116.5 0.5t89.5 3t70 6t49 11t34.5 16.5t19.5 23.5t11.5 31.5t2.5 42 t-2 42t-11.5 31.5t-20 23.5t-35 16.5t-48.5 10.5t-70 5.5t-90 3t-116 0.5q-97 0 -150 -1t-105 -6t-74.5 -12.5t-41.5 -23.5t-23.5 -36.5t-4.5 -53.5z" />
<glyph unicode=":" horiz-adv-x="749" d="M147 -23v400h451v-400h-451zM147 1083v400h451v-400h-451z" />
<glyph unicode=";" horiz-adv-x="817" d="M150 -76h112q23 0 38 14.5t15 36.5q0 62 -36 62h-99v379h451v-502q0 -91 -53.5 -153t-131.5 -62h-215q-50 0 -81 10v215zM180 1081v400h451v-400h-451z" />
<glyph unicode="&#x3c;" horiz-adv-x="751" d="M63 602v203l586 397v-274l-346 -219l346 -222v-274z" />
<glyph unicode="=" horiz-adv-x="1101" d="M139 344v227h836v-227h-836zM139 754v227h836v-227h-836z" />
<glyph unicode="&#x3e;" horiz-adv-x="751" d="M98 213v274l346 222l-346 219v274l584 -397v-203z" />
<glyph unicode="?" horiz-adv-x="1820" d="M113 920q0 268 37 372q35 103 129 144q93 40 327 45q73 2 244 2q112 0 182 -1.5t151.5 -8t129 -19.5t100 -34.5t79.5 -54t51.5 -79t34 -107.5t9.5 -141q0 -190 -83 -297t-214 -129q-158 -26 -221.5 -44t-81.5 -37t-18 -62h-416v143q0 64 22 109.5t71.5 77.5t118.5 52.5 t173 37.5q145 23 202.5 57t57.5 92q0 62 -12 80q-20 28 -108 33q-54 4 -228 4h-147.5t-94.5 -10.5t-63.5 -18.5t-27.5 -42.5t-15 -64v-99.5h-389zM524 0v367h469l11 -11v-356h-480z" />
<glyph unicode="@" horiz-adv-x="1335" d="M78 881q0 86 24 168.5t73.5 156.5t119 130t167 89t210.5 33q72 0 147.5 -17.5t154.5 -60.5t140 -105.5t100 -161.5t39 -220q0 -58 -12 -109.5t-38.5 -98.5t-76 -75t-116.5 -28q-41 0 -72.5 9.5t-47 21t-26 28t-12.5 23t-4 14.5q-4 -6 -10 -14t-25.5 -24t-44 -27.5 t-67 -21t-91.5 -9.5q-125 0 -195.5 77t-70.5 185q0 76 34.5 145.5t107.5 117.5t169 48q48 0 88 -11t63 -25t41 -32t24 -27.5t8 -15.5l6 99h94q-9 -70 -16.5 -130.5t-12 -98t-8.5 -67.5t-6 -45.5t-3.5 -26t-2 -14.5t-0.5 -7q0 -82 92 -82q68 0 102.5 67.5t34.5 161.5 t-28.5 172.5t-76.5 132t-111 91t-131.5 54.5t-139.5 17q-93 0 -173 -27.5t-137 -74t-97.5 -108.5t-60.5 -131.5t-20 -141.5q0 -91 31.5 -175t90.5 -151.5t154 -108t212 -40.5q95 0 187 34t132 84l62 -73q-39 -53 -151 -94.5t-238 -41.5q-113 0 -209.5 31.5t-165 85 t-117 125.5t-71.5 153t-23 167zM451 850q0 -72 49 -125t131 -53q95 0 147.5 62t52.5 143q0 74 -44.5 131t-122.5 57q-95 0 -154 -67t-59 -148z" />
<glyph unicode="A" horiz-adv-x="2353" d="M45 0l727 1464h768l729 -1464h-526l-139 244h-893l-140 -244h-526zM879 623h555l-242 514h-72z" />
<glyph unicode="B" d="M133 0v1464h1309q54 0 93.5 -2.5t90 -12t85.5 -26t71.5 -47.5t59 -74t36.5 -106.5t14 -144.5q0 -115 -42 -192t-107 -107q203 -89 203 -346q0 -222 -104.5 -314t-346.5 -92h-1362zM584 354h780q60 0 95.5 29t35.5 82q0 70 -33 95.5t-98 25.5h-780v-232zM584 913h798 q113 0 113 99q0 98 -113 98h-798v-197z" />
<glyph unicode="C" horiz-adv-x="2064" d="M111 733q0 145 2.5 230.5t18.5 175.5t37 134.5t72 91.5t107.5 64t160 33.5t214 19.5t283.5 3q135 0 235 -2.5t189 -11t150.5 -17.5t114 -31.5t84.5 -42t57.5 -59t37.5 -74t20 -95t9.5 -113.5t1.5 -138h-451q0 45 -4.5 72t-20.5 53t-44.5 39t-79.5 23.5t-122.5 14 t-176.5 3.5h-147t-108 -8.5t-81 -13.5t-51.5 -31t-34.5 -43.5t-15 -68.5t-7.5 -89t0.5 -121v-122t8 -89t14 -68.5t34.5 -43t51 -30t81.5 -12.5t108 -8h147q106 0 174.5 2.5t121.5 12t80.5 22t45 38t22 54.5t4.5 76h451q0 -110 -2.5 -170.5t-16.5 -131.5t-35.5 -104.5 t-69 -72.5t-108 -53t-160.5 -29t-218 -18.5t-289 -3.5q-173 0 -283.5 3t-214 19t-160 33t-107.5 64t-72 91.5t-37 135t-18.5 176t-2.5 231.5z" />
<glyph unicode="D" horiz-adv-x="2256" d="M127 0v1464h1262q134 0 229 -14.5t166 -51t113.5 -88.5t68.5 -138.5t35.5 -189t9.5 -251.5q0 -148 -9.5 -249.5t-35.5 -188.5t-68.5 -139t-113.5 -88.5t-166 -51t-229 -14.5h-1262zM578 379h735q145 0 196.5 75t51.5 277q0 205 -51.5 279.5t-196.5 74.5h-735v-706z" />
<glyph unicode="E" horiz-adv-x="1961" d="M162 0v1464h1577v-354h-1127v-203h1076v-352h-1076v-201h1127v-354h-1577z" />
<glyph unicode="F" horiz-adv-x="1884" d="M137 0v1464h1565v-379h-1114v-251h1052v-379h-1052v-455h-451z" />
<glyph unicode="G" horiz-adv-x="2330" d="M207 731q0 124 1 193.5t10 154.5t19 126.5t39.5 94.5t59 73.5t90 48t119.5 35t161 17t202 10.5t253 1q147 0 236.5 -1t191.5 -6t157.5 -12t119.5 -23.5t93.5 -35t63.5 -52t46 -69.5t24.5 -92.5t15 -115.5t2.5 -144h-450q0 85 -13 110q-20 39 -102 51q-76 11 -387 11 q-266 0 -341 -12q-96 -16 -129 -71q-29 -49 -31 -190q-1 -32 -1 -104v-120.5t10 -88.5t17.5 -67.5t39.5 -43t58.5 -30t91.5 -13.5t122 -8h165q323 0 396 11q76 11 94 48q10 23 10 93h-557v328h1007q0 -363 -14 -484q-20 -178 -94 -254q-74 -78 -254 -102q-137 -18 -527 -18 h-1h-1h-1h-1h-1h-1h-1h-1h-1h-1h-1h-1h-1h-1h-1h-1h-1h-1h-1h-1h-1h-1h-1h-1h-1h-1h-1h-1h-1h-1h-1h-1h-1h-1h-1h-1h-1h-1h-1h-1h-1h-1h-1h-1h-1h-1h-1h-1h-1h-1h-1h-10q-154 0 -253 1t-201.5 10.5t-161.5 16.5t-120 34t-90 48t-58.5 73t-39.5 93.5t-19 126.5t-10 154.5 t-1 193.5z" />
<glyph unicode="H" horiz-adv-x="2256" d="M145 0v1464h451v-516h973v516h450v-1464h-450v569h-973v-569h-451z" />
<glyph unicode="I" horiz-adv-x="706" d="M119 0v1464h450v-1464h-450z" />
<glyph unicode="J" horiz-adv-x="1861" d="M104 358v287h451v-135q0 -47 22 -78t66 -46.5t94 -21.5t121 -6t121 6t94 21.5t66 46.5t22 78v954h451v-1106q0 -72 -19 -128t-51 -95.5t-85.5 -68t-111.5 -45t-141 -26t-161.5 -12.5t-184.5 -3t-184.5 3t-161.5 12.5t-141 26t-111.5 45t-85.5 68t-51 95.5t-19 128z" />
<glyph unicode="K" horiz-adv-x="2170" d="M156 0v1464h450v-514h236l512 514h618l-731 -698l821 -766h-651l-569 571h-236v-571h-450z" />
<glyph unicode="L" horiz-adv-x="1759" d="M164 0v1464h450v-1085h1022v-379h-1472z" />
<glyph unicode="M" horiz-adv-x="2797" d="M160 0v1464h809l385 -823q5 -10 10 -55.5t11 -83t14 -37.5t13.5 37.5t10.5 83t10 55.5l385 823h768v-1464h-450v1022q0 24 10 63.5t10 53.5q0 12 -12 12q-3 0 -6 -2.5t-6.5 -7.5t-6.5 -9.5t-6.5 -12t-5.5 -12.5t-5.5 -13t-4.5 -11l-520 -1083h-369l-561 1087 q-1 3 -4.5 11t-5.5 13t-5.5 12.5t-6.5 12t-6.5 9.5t-6.5 7.5t-6 2.5q-12 0 -12 -16q0 -10 10 -49.5t10 -63.5v-1026h-450z" />
<glyph unicode="N" horiz-adv-x="2445" d="M219 0v1464h737l770 -1083q3 -4 12.5 -25.5t20.5 -38t21 -16.5q6 0 6 12q0 11 -20.5 69t-20.5 73v1009h450v-1464h-737l-772 1083q-5 8 -14 30t-18.5 36t-20.5 14q-6 0 -6 -10q0 -12 21.5 -70t21.5 -73v-1010h-451z" />
<glyph unicode="O" horiz-adv-x="2269" d="M176 731q0 156 1.5 235t17.5 176.5t35.5 136.5t74.5 89.5t114 64t174 31t235 19.5t315 2t314 -2t234 -19t174 -31.5t114.5 -64t75.5 -90t36.5 -136.5t18 -176t1.5 -235q0 -154 -1.5 -234t-18 -176t-36.5 -136t-75.5 -89.5t-114.5 -63.5t-174 -31t-234 -19t-314 -2 q-156 0 -258 1t-206 11t-164 16.5t-121 34.5t-90.5 48t-59.5 73.5t-39.5 93.5t-18.5 126.5t-9.5 154t-0.5 192.5zM627 731q0 -183 13 -238q17 -75 78 -102q64 -29 257 -32l168 -1q275 0 353 12q99 16 132 71q30 49 32 186q1 32 1 104q0 184 -13 239q-17 76 -78 103 q-64 29 -257 32l-168 1q-275 0 -353 -13q-99 -15 -132 -69q-30 -49 -32 -187q-1 -33 -1 -106z" />
<glyph unicode="P" horiz-adv-x="2060" d="M190 0v1464h1102q91 0 155 -3t129.5 -12.5t108.5 -27t84.5 -46t66 -69t44 -97.5t27.5 -130.5t8 -167.5q0 -75 -5 -136.5t-17.5 -112t-28 -90.5t-41 -71t-53 -53.5t-67.5 -38.5t-80.5 -26t-95.5 -15.5t-109 -7.5t-126 -2h-651v-358h-451zM641 737h651q81 0 126.5 38.5 t45.5 135.5t-45.5 135.5t-126.5 38.5h-651v-348z" />
<glyph unicode="Q" horiz-adv-x="2457" d="M186 729q0 121 1 191t10.5 153t20.5 125.5t41 94.5t62 74t93.5 49.5t125 35.5t167 18t209.5 11.5t262 1.5q159 0 263 -1t210 -10.5t168 -17t125 -35t93.5 -48.5t61 -73t41 -94t20 -127t10.5 -155t1 -193q0 -213 -27 -321l223 -129l-176 -308l-176 105 q-110 -66 -256 -82.5t-581 -16.5q-191 0 -309.5 2.5t-234.5 17.5t-177.5 33t-120 62.5t-81.5 91t-42.5 134.5t-23 177t-3.5 234zM637 729q0 -181 13 -236q18 -75 79 -103q66 -30 265 -33l186 -1q258 0 325 13l-401 229l184 326l432 -269v74q0 182 -13 237q-17 75 -78 103 q-65 31 -262 34q-56 1 -189 1q-287 0 -368 -12q-104 -16 -138 -70q-31 -49 -34 -184q-1 -33 -1 -109z" />
<glyph unicode="R" horiz-adv-x="2195" d="M160 0v1464h1310q120 0 202 -20.5t139.5 -69.5t83.5 -131t26 -205q0 -185 -46.5 -277.5t-156.5 -135.5q64 -28 98.5 -49t60.5 -54.5t35 -78t9 -115.5v-328h-451v262q0 26 -7.5 50t-23.5 47t-46 37t-70 14h-713v-410h-450zM610 788h723q72 0 104.5 33.5t32.5 114.5 q0 83 -32.5 116t-104.5 33h-723v-297z" />
<glyph unicode="S" horiz-adv-x="2115" d="M156 498h450q0 -83 13 -108q20 -37 102 -47q67 -9 313 -9q306 0 365 10q51 9 59 37q4 12 4 43t-7 47.5t-28.5 32t-71.5 23t-123.5 13.5t-197.5 11q-129 5 -205 9t-167.5 11.5t-140.5 15.5t-108 23.5t-86.5 32t-60.5 44.5t-45.5 59t-25.5 77t-16 96.5t-3 118.5 q0 80 10 141.5t37.5 108t58 79t89.5 54.5t113.5 34.5t149 19.5t176.5 8.5t214 1.5q147 0 236.5 -2t187.5 -10t152 -22t110.5 -40t83 -61.5t50 -90t31 -122.5t7.5 -160h-450q0 81 -13 104q-19 36 -100 45q-62 7 -293 7q-283 0 -339 -11q-48 -9 -57 -39q-3 -13 -3 -45 q0 -25 5 -41t23.5 -29.5t42 -20.5t75.5 -13t108 -9t153 -7q154 -6 251 -12t197 -18.5t156 -27t111.5 -41.5t81.5 -59.5t47.5 -83t28 -110t6.5 -142.5q0 -62 -5.5 -111.5t-20.5 -91.5t-33.5 -73t-52.5 -56.5t-69.5 -42.5t-92 -30t-112.5 -20.5t-139 -11.5t-163 -5.5 t-193 -1.5q-158 0 -256 2t-199 11t-156 22.5t-109.5 42t-79 63.5t-45 92t-26 123t-5.5 162z" />
<glyph unicode="T" horiz-adv-x="2123" d="M178 1085v379h1743v-379h-645v-1085h-451v1085h-647z" />
<glyph unicode="U" horiz-adv-x="2193" d="M170 573v891h451v-891q0 -46 4.5 -74t22 -55t48 -41t85 -25.5t131 -15.5t188.5 -4q111 0 187 4t131 15.5t86 25.5t49 41t23 55t5 74v891h451v-891q0 -84 -4.5 -148.5t-18.5 -121t-31.5 -97.5t-51 -75.5t-69.5 -57t-95 -40.5t-119 -27.5t-149.5 -15.5t-178.5 -8t-215 -2 t-215.5 2t-179.5 8t-149.5 15.5t-118.5 27.5t-94.5 40.5t-68.5 57t-50.5 75.5t-31 98t-18 121t-4.5 148z" />
<glyph unicode="V" horiz-adv-x="2283" d="M74 1464h510l553 -1085h39l555 1085h507l-739 -1464h-684z" />
<glyph unicode="W" horiz-adv-x="3115" d="M10 1464h482l405 -1085h49l334 1085h535l333 -1085h50l405 1085h481l-567 -1464h-690l-250 897q-4 14 -7 68.5t-8.5 96.5t-15.5 42t-15 -42.5t-8 -96.5t-7 -68l-248 -897h-690z" />
<glyph unicode="X" horiz-adv-x="2121" d="M10 0l670 748l-670 716h625l422 -471l422 471h624l-669 -716l669 -748h-606l-440 492l-441 -492h-606z" />
<glyph unicode="Y" horiz-adv-x="2158" d="M20 1464h617l377 -481q26 -35 38 -83.5t14.5 -78.5t8.5 -30q7 0 9.5 30t14.5 78.5t38 83.5l376 481h617l-836 -958v-506h-450v506z" />
<glyph unicode="Z" horiz-adv-x="2156" d="M170 0v358l999 727h-956v379h1747v-358l-1012 -727h1043v-379h-1821z" />
<glyph unicode="[" horiz-adv-x="950" d="M203 -465v2257h596v-348h-248v-1561h248v-348h-596z" />
<glyph unicode="\" horiz-adv-x="692" d="M12 1491h228l454 -1673h-227z" />
<glyph unicode="]" horiz-adv-x="950" d="M201 -117h248v1561h-248v348h596v-2257h-596v348z" />
<glyph unicode="^" horiz-adv-x="831" d="M80 817l301 496h82l299 -496h-68l-272 318l-277 -318h-65z" />
<glyph unicode="_" horiz-adv-x="796" d="M2 -2h795v-113h-795v113z" />
<glyph unicode="`" horiz-adv-x="655" d="M96 1401l156 151l309 -350l-78 -67z" />
<glyph unicode="a" horiz-adv-x="2353" d="M45 0l727 1464h768l729 -1464h-526l-139 244h-893l-140 -244h-526zM879 623h555l-242 514h-72z" />
<glyph unicode="b" d="M133 0v1464h1309q54 0 93.5 -2.5t90 -12t85.5 -26t71.5 -47.5t59 -74t36.5 -106.5t14 -144.5q0 -115 -42 -192t-107 -107q203 -89 203 -346q0 -222 -104.5 -314t-346.5 -92h-1362zM584 354h780q60 0 95.5 29t35.5 82q0 70 -33 95.5t-98 25.5h-780v-232zM584 913h798 q113 0 113 99q0 98 -113 98h-798v-197z" />
<glyph unicode="c" horiz-adv-x="2064" d="M111 733q0 145 2.5 230.5t18.5 175.5t37 134.5t72 91.5t107.5 64t160 33.5t214 19.5t283.5 3q135 0 235 -2.5t189 -11t150.5 -17.5t114 -31.5t84.5 -42t57.5 -59t37.5 -74t20 -95t9.5 -113.5t1.5 -138h-451q0 45 -4.5 72t-20.5 53t-44.5 39t-79.5 23.5t-122.5 14 t-176.5 3.5h-147t-108 -8.5t-81 -13.5t-51.5 -31t-34.5 -43.5t-15 -68.5t-7.5 -89t0.5 -121v-122t8 -89t14 -68.5t34.5 -43t51 -30t81.5 -12.5t108 -8h147q106 0 174.5 2.5t121.5 12t80.5 22t45 38t22 54.5t4.5 76h451q0 -110 -2.5 -170.5t-16.5 -131.5t-35.5 -104.5 t-69 -72.5t-108 -53t-160.5 -29t-218 -18.5t-289 -3.5q-173 0 -283.5 3t-214 19t-160 33t-107.5 64t-72 91.5t-37 135t-18.5 176t-2.5 231.5z" />
<glyph unicode="d" horiz-adv-x="2256" d="M127 0v1464h1262q134 0 229 -14.5t166 -51t113.5 -88.5t68.5 -138.5t35.5 -189t9.5 -251.5q0 -148 -9.5 -249.5t-35.5 -188.5t-68.5 -139t-113.5 -88.5t-166 -51t-229 -14.5h-1262zM578 379h735q145 0 196.5 75t51.5 277q0 205 -51.5 279.5t-196.5 74.5h-735v-706z" />
<glyph unicode="e" horiz-adv-x="1961" d="M162 0v1464h1577v-354h-1127v-203h1076v-352h-1076v-201h1127v-354h-1577z" />
<glyph unicode="f" horiz-adv-x="1884" d="M137 0v1464h1565v-379h-1114v-251h1052v-379h-1052v-455h-451z" />
<glyph unicode="g" horiz-adv-x="2330" d="M207 731q0 124 1 193.5t10 154.5t19 126.5t39.5 94.5t59 73.5t90 48t119.5 35t161 17t202 10.5t253 1q147 0 236.5 -1t191.5 -6t157.5 -12t119.5 -23.5t93.5 -35t63.5 -52t46 -69.5t24.5 -92.5t15 -115.5t2.5 -144h-450q0 85 -13 110q-20 39 -102 51q-76 11 -387 11 q-266 0 -341 -12q-96 -16 -129 -71q-29 -49 -31 -190q-1 -32 -1 -104v-120.5t10 -88.5t17.5 -67.5t39.5 -43t58.5 -30t91.5 -13.5t122 -8h165q323 0 396 11q76 11 94 48q10 23 10 93h-557v328h1007q0 -363 -14 -484q-20 -178 -94 -254q-74 -78 -254 -102q-137 -18 -527 -18 h-1h-1h-1h-1h-1h-1h-1h-1h-1h-1h-1h-1h-1h-1h-1h-1h-1h-1h-1h-1h-1h-1h-1h-1h-1h-1h-1h-1h-1h-1h-1h-1h-1h-1h-1h-1h-1h-1h-1h-1h-1h-1h-1h-1h-1h-1h-1h-1h-1h-1h-1h-10q-154 0 -253 1t-201.5 10.5t-161.5 16.5t-120 34t-90 48t-58.5 73t-39.5 93.5t-19 126.5t-10 154.5 t-1 193.5z" />
<glyph unicode="h" horiz-adv-x="2256" d="M145 0v1464h451v-516h973v516h450v-1464h-450v569h-973v-569h-451z" />
<glyph unicode="i" horiz-adv-x="706" d="M119 0v1464h450v-1464h-450z" />
<glyph unicode="j" horiz-adv-x="1861" d="M104 358v287h451v-135q0 -47 22 -78t66 -46.5t94 -21.5t121 -6t121 6t94 21.5t66 46.5t22 78v954h451v-1106q0 -72 -19 -128t-51 -95.5t-85.5 -68t-111.5 -45t-141 -26t-161.5 -12.5t-184.5 -3t-184.5 3t-161.5 12.5t-141 26t-111.5 45t-85.5 68t-51 95.5t-19 128z" />
<glyph unicode="k" horiz-adv-x="2170" d="M156 0v1464h450v-514h236l512 514h618l-731 -698l821 -766h-651l-569 571h-236v-571h-450z" />
<glyph unicode="l" horiz-adv-x="1759" d="M164 0v1464h450v-1085h1022v-379h-1472z" />
<glyph unicode="m" horiz-adv-x="2797" d="M160 0v1464h809l385 -823q5 -10 10 -55.5t11 -83t14 -37.5t13.5 37.5t10.5 83t10 55.5l385 823h768v-1464h-450v1022q0 24 10 63.5t10 53.5q0 12 -12 12q-3 0 -6 -2.5t-6.5 -7.5t-6.5 -9.5t-6.5 -12t-5.5 -12.5t-5.5 -13t-4.5 -11l-520 -1083h-369l-561 1087 q-1 3 -4.5 11t-5.5 13t-5.5 12.5t-6.5 12t-6.5 9.5t-6.5 7.5t-6 2.5q-12 0 -12 -16q0 -10 10 -49.5t10 -63.5v-1026h-450z" />
<glyph unicode="n" horiz-adv-x="2445" d="M219 0v1464h737l770 -1083q3 -4 12.5 -25.5t20.5 -38t21 -16.5q6 0 6 12q0 11 -20.5 69t-20.5 73v1009h450v-1464h-737l-772 1083q-5 8 -14 30t-18.5 36t-20.5 14q-6 0 -6 -10q0 -12 21.5 -70t21.5 -73v-1010h-451z" />
<glyph unicode="o" horiz-adv-x="2269" d="M176 731q0 156 1.5 235t17.5 176.5t35.5 136.5t74.5 89.5t114 64t174 31t235 19.5t315 2t314 -2t234 -19t174 -31.5t114.5 -64t75.5 -90t36.5 -136.5t18 -176t1.5 -235q0 -154 -1.5 -234t-18 -176t-36.5 -136t-75.5 -89.5t-114.5 -63.5t-174 -31t-234 -19t-314 -2 q-156 0 -258 1t-206 11t-164 16.5t-121 34.5t-90.5 48t-59.5 73.5t-39.5 93.5t-18.5 126.5t-9.5 154t-0.5 192.5zM627 731q0 -183 13 -238q17 -75 78 -102q64 -29 257 -32l168 -1q275 0 353 12q99 16 132 71q30 49 32 186q1 32 1 104q0 184 -13 239q-17 76 -78 103 q-64 29 -257 32l-168 1q-275 0 -353 -13q-99 -15 -132 -69q-30 -49 -32 -187q-1 -33 -1 -106z" />
<glyph unicode="p" horiz-adv-x="2060" d="M190 0v1464h1102q91 0 155 -3t129.5 -12.5t108.5 -27t84.5 -46t66 -69t44 -97.5t27.5 -130.5t8 -167.5q0 -75 -5 -136.5t-17.5 -112t-28 -90.5t-41 -71t-53 -53.5t-67.5 -38.5t-80.5 -26t-95.5 -15.5t-109 -7.5t-126 -2h-651v-358h-451zM641 737h651q81 0 126.5 38.5 t45.5 135.5t-45.5 135.5t-126.5 38.5h-651v-348z" />
<glyph unicode="q" horiz-adv-x="2457" d="M186 729q0 121 1 191t10.5 153t20.5 125.5t41 94.5t62 74t93.5 49.5t125 35.5t167 18t209.5 11.5t262 1.5q159 0 263 -1t210 -10.5t168 -17t125 -35t93.5 -48.5t61 -73t41 -94t20 -127t10.5 -155t1 -193q0 -213 -27 -321l223 -129l-176 -308l-176 105 q-110 -66 -256 -82.5t-581 -16.5q-191 0 -309.5 2.5t-234.5 17.5t-177.5 33t-120 62.5t-81.5 91t-42.5 134.5t-23 177t-3.5 234zM637 729q0 -181 13 -236q18 -75 79 -103q66 -30 265 -33l186 -1q258 0 325 13l-401 229l184 326l432 -269v74q0 182 -13 237q-17 75 -78 103 q-65 31 -262 34q-56 1 -189 1q-287 0 -368 -12q-104 -16 -138 -70q-31 -49 -34 -184q-1 -33 -1 -109z" />
<glyph unicode="r" horiz-adv-x="2195" d="M160 0v1464h1310q120 0 202 -20.5t139.5 -69.5t83.5 -131t26 -205q0 -185 -46.5 -277.5t-156.5 -135.5q64 -28 98.5 -49t60.5 -54.5t35 -78t9 -115.5v-328h-451v262q0 26 -7.5 50t-23.5 47t-46 37t-70 14h-713v-410h-450zM610 788h723q72 0 104.5 33.5t32.5 114.5 q0 83 -32.5 116t-104.5 33h-723v-297z" />
<glyph unicode="s" horiz-adv-x="2115" d="M156 498h450q0 -83 13 -108q20 -37 102 -47q67 -9 313 -9q306 0 365 10q51 9 59 37q4 12 4 43t-7 47.5t-28.5 32t-71.5 23t-123.5 13.5t-197.5 11q-129 5 -205 9t-167.5 11.5t-140.5 15.5t-108 23.5t-86.5 32t-60.5 44.5t-45.5 59t-25.5 77t-16 96.5t-3 118.5 q0 80 10 141.5t37.5 108t58 79t89.5 54.5t113.5 34.5t149 19.5t176.5 8.5t214 1.5q147 0 236.5 -2t187.5 -10t152 -22t110.5 -40t83 -61.5t50 -90t31 -122.5t7.5 -160h-450q0 81 -13 104q-19 36 -100 45q-62 7 -293 7q-283 0 -339 -11q-48 -9 -57 -39q-3 -13 -3 -45 q0 -25 5 -41t23.5 -29.5t42 -20.5t75.5 -13t108 -9t153 -7q154 -6 251 -12t197 -18.5t156 -27t111.5 -41.5t81.5 -59.5t47.5 -83t28 -110t6.5 -142.5q0 -62 -5.5 -111.5t-20.5 -91.5t-33.5 -73t-52.5 -56.5t-69.5 -42.5t-92 -30t-112.5 -20.5t-139 -11.5t-163 -5.5 t-193 -1.5q-158 0 -256 2t-199 11t-156 22.5t-109.5 42t-79 63.5t-45 92t-26 123t-5.5 162z" />
<glyph unicode="t" horiz-adv-x="2123" d="M178 1085v379h1743v-379h-645v-1085h-451v1085h-647z" />
<glyph unicode="u" horiz-adv-x="2193" d="M170 573v891h451v-891q0 -46 4.5 -74t22 -55t48 -41t85 -25.5t131 -15.5t188.5 -4q111 0 187 4t131 15.5t86 25.5t49 41t23 55t5 74v891h451v-891q0 -84 -4.5 -148.5t-18.5 -121t-31.5 -97.5t-51 -75.5t-69.5 -57t-95 -40.5t-119 -27.5t-149.5 -15.5t-178.5 -8t-215 -2 t-215.5 2t-179.5 8t-149.5 15.5t-118.5 27.5t-94.5 40.5t-68.5 57t-50.5 75.5t-31 98t-18 121t-4.5 148z" />
<glyph unicode="v" horiz-adv-x="2283" d="M74 1464h510l553 -1085h39l555 1085h507l-739 -1464h-684z" />
<glyph unicode="w" horiz-adv-x="3115" d="M10 1464h482l405 -1085h49l334 1085h535l333 -1085h50l405 1085h481l-567 -1464h-690l-250 897q-4 14 -7 68.5t-8.5 96.5t-15.5 42t-15 -42.5t-8 -96.5t-7 -68l-248 -897h-690z" />
<glyph unicode="x" horiz-adv-x="2121" d="M10 0l670 748l-670 716h625l422 -471l422 471h624l-669 -716l669 -748h-606l-440 492l-441 -492h-606z" />
<glyph unicode="y" horiz-adv-x="2158" d="M20 1464h617l377 -481q26 -35 38 -83.5t14.5 -78.5t8.5 -30q7 0 9.5 30t14.5 78.5t38 83.5l376 481h617l-836 -958v-506h-450v506z" />
<glyph unicode="z" horiz-adv-x="2156" d="M170 0v358l999 727h-956v379h1747v-358l-1012 -727h1043v-379h-1821z" />
<glyph unicode="{" horiz-adv-x="954" d="M78 631q61 31 105 82.5t44 117.5v529q0 210 153 321t443 111v-307q-248 0 -248 -256v-398q0 -134 -126 -200q69 -38 97.5 -80t28.5 -121v-381q0 -109 63 -158t185 -49v-307q-298 0 -447 103t-149 329v463q0 51 -42 111.5t-107 89.5z" />
<glyph unicode="|" horiz-adv-x="409" d="M121 -272v1785h170v-1785h-170z" />
<glyph unicode="}" horiz-adv-x="954" d="M78 -158q122 0 185 49t63 158v381q0 79 29 121t98 80q-127 67 -127 200v398q0 256 -248 256v307q290 0 443 -111t153 -321v-529q0 -66 44 -117.5t105 -82.5q-65 -29 -107 -89.5t-42 -111.5v-463q0 -226 -149 -329t-447 -103v307z" />
<glyph horiz-adv-x="747" d="M109 -76h112q23 0 38 14.5t15 36.5q0 62 -36 62h-99v379h451v-502q0 -91 -53 -153t-131 -62h-216q-47 0 -81 10v215z" />
<glyph horiz-adv-x="1292" d="M109 -76h112q23 0 38 14.5t15 36.5q0 62 -36 62h-99v379h451v-502q0 -91 -53 -153t-131 -62h-216q-47 0 -81 10v215zM727 -76h113q23 0 38 14.5t15 36.5q0 62 -37 62h-98v379h450v-502q0 -91 -53 -153t-131 -62h-215q-48 0 -82 10v215z" />
<glyph horiz-adv-x="2906" d="M115 -23v244l1822 1262v-256zM186 1155q0 49 0.5 81t5 65t8 51.5t16 38.5t22.5 29t35 19t45 13t60 6t74 3.5t93 0.5q73 0 113 -0.5t84.5 -6.5t65 -12t42.5 -24.5t29.5 -36.5t14.5 -55t8 -73.5t1 -98.5t-1 -99t-8.5 -74t-14 -55t-29.5 -36.5t-42.5 -24.5t-64.5 -11.5 t-84.5 -6t-113.5 -0.5q-59 0 -93 0.5t-74 3.5t-60 6t-45 13t-35 19t-22.5 29t-16 38.5t-8 51.5t-5 65t-0.5 81zM412 1155q0 -46 30.5 -59t104.5 -13q73 0 102 13t29 59q0 45 -32 58.5t-99 13.5q-68 0 -101.5 -13.5t-33.5 -58.5zM1143 307q0 62 1 98.5t8 73.5t14.5 55 t29.5 36.5t42.5 24.5t65 12t84.5 6.5t113 0.5q59 0 93 -0.5t74 -3.5t60.5 -6t45.5 -12.5t35.5 -19t23.5 -29t17 -38.5t8.5 -51.5t5 -64t0.5 -80.5q0 -61 -1 -98.5t-9 -74.5t-15.5 -56t-30 -36.5t-43.5 -24.5t-65.5 -12.5t-85 -6t-113.5 -0.5t-113 0.5t-84.5 6.5t-65 12 t-42.5 24.5t-29.5 36.5t-14.5 55t-8 73.5t-1 98.5zM1368 307q0 -46 30 -58.5t105 -12.5t105 12.5t30 58.5q0 45 -33.5 58.5t-101.5 13.5t-101.5 -13.5t-33.5 -58.5zM2068 307q0 49 0.5 81t5 65t8 51.5t16 38.5t22.5 29t35 19t45 13t60 6t74 3.5t93 0.5q73 0 113 -0.5 t84.5 -6.5t65 -12t42.5 -24.5t29.5 -36.5t14.5 -55t8 -73.5t1 -98.5t-1 -99t-8.5 -74t-14 -55t-29.5 -36.5t-42.5 -24.5t-64.5 -11.5t-84.5 -6t-113.5 -0.5q-59 0 -93 0.5t-74 3.5t-60 6t-45 13t-35 19t-22.5 29t-16 38.5t-8 51.5t-5 65t-0.5 81zM2294 307q0 -46 30 -58.5 t105 -12.5q74 0 102.5 12.5t28.5 58.5q0 45 -32 58.5t-99 13.5q-68 0 -101.5 -13.5t-33.5 -58.5z" />
<glyph horiz-adv-x="745" d="M41 516v102l553 455l123 -149l-436 -353l436 -348l-119 -153z" />
<glyph horiz-adv-x="591" d="M76 762v397q0 70 10 124t27 92.5t47.5 65.5t63.5 43.5t84 25t100.5 11.5t119.5 3v-191q-82 0 -114.5 -23t-32.5 -87v-64h90v-397h-395z" />
<glyph horiz-adv-x="591" d="M76 770v191q82 0 114.5 23t32.5 87v64h-90v397h395v-397q0 -70 -10 -124t-27 -92.5t-48 -65.5t-64 -43t-84 -25t-100 -12t-119 -3z" />
<glyph horiz-adv-x="1128" d="M76 762v397q0 70 10 124t27 92.5t47.5 65.5t63.5 43.5t84 25t100.5 11.5t119.5 3v-191q-82 0 -114.5 -23t-32.5 -87v-64h90v-397h-395zM631 762v397q0 70 10 124t27 92.5t47.5 65.5t63.5 43.5t84 25t100.5 11.5t119.5 3v-191q-82 0 -114.5 -23t-32.5 -87v-64h90v-397 h-395z" />
<glyph horiz-adv-x="1128" d="M76 764v190q82 0 114.5 23.5t32.5 87.5v63h-90v398h395v-398q0 -70 -10 -124t-27.5 -92.5t-48 -65.5t-64 -43t-84.5 -24.5t-99.5 -11.5t-118.5 -3zM631 764v190q82 0 114.5 23.5t32.5 87.5v63h-90v398h395v-398q0 -70 -10 -124t-27.5 -92.5t-48.5 -65.5t-64.5 -43 t-84.5 -24.5t-99.5 -11.5t-117.5 -3z" />
<glyph horiz-adv-x="978" d="M143 569q0 62 23.5 121.5t66 107.5t110.5 77.5t149 29.5q106 0 183 -48.5t112.5 -121t35.5 -157.5t-36.5 -159t-113.5 -123.5t-181 -49.5q-163 0 -256 95.5t-93 227.5z" />
<glyph horiz-adv-x="1501" d="M137 522v283h1219v-283h-1219z" />
<glyph horiz-adv-x="2267" d="M139 522v285h1991v-285h-1991z" />
<glyph horiz-adv-x="2390" d="M82 1593v164h903v-164h-371v-678h-163v678h-369zM1061 915v842h209l377 -616l368 616h211v-842h-164v666l-393 -666h-70l-374 656v-656h-164z" />
<glyph horiz-adv-x="745" d="M41 223l436 348l-436 353l123 149l553 -455v-102l-557 -446z" />
<glyph unicode="&#xa1;" horiz-adv-x="2131" d="M23 1464h624l518 -610q8 -9 16.5 -40.5t15.5 -57t15 -25.5q6 0 7.5 27.5t5.5 66.5t16 60l330 579h508l-525 -932q-21 -37 -59 -106q-50 -92 -75 -134t-70 -103t-83.5 -86.5t-98.5 -54.5t-135 -38.5t-175 -9.5h-467v379h490q48 0 63 8t31 37zM745 1546v203h725v-203h-725z " />
<glyph unicode="&#xa2;" horiz-adv-x="2131" d="M23 1464h624l518 -610q8 -9 16.5 -40.5t15.5 -57t15 -25.5q6 0 7.5 27.5t5.5 66.5t16 60l330 579h508l-525 -932q-21 -37 -59 -106q-50 -92 -75 -134t-70 -103t-83.5 -86.5t-98.5 -54.5t-135 -38.5t-175 -9.5h-467v379h490q48 0 63 8t31 37zM745 1546v203h725v-203h-725z " />
<glyph unicode="&#xa3;" horiz-adv-x="1292" d="M109 -76h112q23 0 38 14.5t15 36.5q0 62 -36 62h-99v379h451v-502q0 -91 -53 -153t-131 -62h-216q-47 0 -81 10v215zM727 -76h113q23 0 38 14.5t15 36.5q0 62 -37 62h-98v379h450v-502q0 -91 -53 -153t-131 -62h-215q-48 0 -82 10v215z" />
<glyph unicode="&#xa6;" horiz-adv-x="409" d="M121 -272v714h170v-714h-170zM121 799v714h170v-714h-170z" />
<glyph unicode="&#xa7;" horiz-adv-x="1538" d="M53 561v137q0 101 49 163t107 79q-4 5 -14 15.5t-14 15t-12 14.5t-11.5 16.5t-9 18t-7.5 21.5t-4 24t-2 29v69q0 112 80 187t223 75h641q164 0 243 -83.5t79 -217.5v-20h-311v20q0 37 -38.5 53.5t-144.5 16.5h-336q-78 0 -115.5 -22.5t-37.5 -84.5t36 -83t117 -21h617 q129 0 212 -74t83 -194v-146q0 -93 -41.5 -157.5t-114.5 -77.5q3 -2 8 -5.5t18 -17t22.5 -30t17.5 -46t8 -63.5v-63q0 -113 -91.5 -187t-256.5 -74h-600q-143 0 -233.5 87.5t-90.5 214.5v20h307v-20q0 -36 36.5 -52t123.5 -16h362q82 0 121 19.5t39 80.5q0 58 -41.5 87.5 t-115.5 29.5h-580q-168 0 -248 69t-80 193zM338 602q0 -43 22.5 -68.5t65.5 -25.5h633q77 0 108 28t31 82v54q0 40 -26.5 71t-69.5 31h-653q-111 0 -111 -127v-45z" />
<glyph unicode="&#xa8;" horiz-adv-x="1961" d="M162 0v1464h1577v-354h-1127v-203h1076v-352h-1076v-201h1127v-354h-1577zM455 1565v241h450v-241h-450zM1049 1565v241h450v-241h-450z" />
<glyph unicode="&#xa9;" horiz-adv-x="1458" d="M59 844v346q0 225 99 324.5t338 99.5h485q85 0 149 -12t118 -41t88 -76.5t52.5 -121t18.5 -173.5v-346q0 -124 -23.5 -204t-78 -125.5t-130.5 -63t-194 -17.5h-485q-234 0 -335.5 94.5t-101.5 315.5zM223 844q0 -148 57 -197t216 -49h485q88 0 136 8.5t78 37.5t39 73.5 t9 126.5v356q0 54 -4.5 91.5t-17 66t-30.5 46t-48.5 28t-68.5 14.5t-93 4h-485q-154 0 -213.5 -52t-59.5 -200v-354zM311 907v207q0 150 57.5 206t209.5 56h313q138 0 199 -51.5t61 -177.5h-119q0 72 -23.5 91t-117.5 19h-318q-38 0 -57.5 -0.5t-39 -6t-26 -12.5t-13 -25.5 t-7 -38t-0.5 -56.5v-207q0 -98 23 -119.5t125 -21.5h311q97 0 120 17.5t23 93.5h119q0 -127 -55.5 -178.5t-202.5 -51.5h-315q-151 0 -209 55t-58 201z" />
<glyph unicode="&#xaa;" horiz-adv-x="2097" d="M160 731q0 148 2 230.5t17.5 175t35.5 135.5t70.5 91t107 64.5t160 33t215.5 19.5t287 3q108 0 183.5 -1t158.5 -5t139 -11t115.5 -18.5t97 -28t75 -40t59.5 -54t39.5 -70t24.5 -87.5t7 -107v-162h-451q0 149 -64.5 177t-383.5 28q-258 0 -326 -12q-79 -14 -101 -61 q-18 -39 -18 -142h674v-318h-674q0 -111 21 -148q26 -45 115 -58q68 -9 309 -9h114t91.5 2t75.5 4t56 8.5t44 12.5t28.5 19t21 26t10.5 34.5t6.5 43.5t0.5 55h451v-164q0 -74 -11 -131t-39.5 -100.5t-62 -74t-95 -51.5t-121 -33.5t-157.5 -19t-187 -8.5t-226 -2 q-174 0 -284 3t-214 19t-160.5 33t-107.5 64t-71.5 91.5t-36.5 135.5t-18.5 176t-2.5 232z" />
<glyph unicode="&#xab;" horiz-adv-x="1236" d="M41 516v102l553 455l123 -149l-436 -353l436 -348l-119 -153zM532 516v102l553 455l123 -149l-436 -353l436 -348l-118 -153z" />
<glyph unicode="&#xad;" horiz-adv-x="1847" d="M293 602v328h1229v-328h-1229z" />
<glyph unicode="&#xae;" horiz-adv-x="1458" d="M59 844v346q0 225 99 324.5t338 99.5h485q85 0 149 -12t118 -41t88 -76.5t52.5 -121t18.5 -173.5v-346q0 -124 -23.5 -204t-78 -125.5t-130.5 -63t-194 -17.5h-485q-234 0 -335.5 94.5t-101.5 315.5zM223 844q0 -148 57 -197t216 -49h485q88 0 136 8.5t78 37.5t39 73.5 t9 126.5v356q0 54 -4.5 91.5t-17 66t-30.5 46t-48.5 28t-68.5 14.5t-93 4h-485q-154 0 -213.5 -52t-59.5 -200v-354zM348 680v696h518q138 0 193 -51t55 -151q0 -142 -53 -181q53 -42 53 -172v-141h-119v141q0 57 -20.5 85t-69.5 28h-438v-254h-119zM467 1053h418 q66 0 88 23t22 100q0 43 -22.5 62t-81.5 19h-424v-204z" />
<glyph unicode="&#xaf;" horiz-adv-x="921" d="M-127 1567v241h451v-241h-451zM180 0v1464h451v-1464h-451zM467 1567v241h451v-241h-451z" />
<glyph unicode="&#xb0;" horiz-adv-x="581" d="M88 1174v71q0 64 34.5 98.5t115.5 34.5h122q79 0 111.5 -34t32.5 -99v-71q0 -58 -36 -96t-108 -38h-122q-78 0 -114 36.5t-36 97.5zM152 1176q0 -74 90 -74h110q88 0 88 74v67q0 74 -88 74h-110q-90 0 -90 -74v-67z" />
<glyph unicode="&#xb1;" horiz-adv-x="1138" d="M111 848v282h295v297h276v-297h322v-282h-322v-295h-276v295h-295zM139 223v283h836v-283h-836z" />
<glyph unicode="&#xb2;" horiz-adv-x="706" d="M119 0v1464h450v-1464h-450z" />
<glyph unicode="&#xb3;" horiz-adv-x="706" d="M119 0v1464h450v-1464h-450z" />
<glyph unicode="&#xb6;" horiz-adv-x="1757" d="M82 922q0 218 138.5 358.5t361.5 140.5h577v-1536h-342v537h-235q-228 0 -364 141t-136 359zM1317 -115v1536h342v-1536h-342z" />
<glyph unicode="&#xb7;" horiz-adv-x="673" d="M152 547v340h395v-340h-395z" />
<glyph unicode="&#xb8;" horiz-adv-x="1961" d="M162 0v1464h1577v-354h-1127v-203h1076v-352h-1076v-201h1127v-354h-1577zM455 1565v241h450v-241h-450zM1049 1565v241h450v-241h-450z" />
<glyph unicode="&#xb9;" horiz-adv-x="3086" d="M174 0v1464h737l770 -1083q6 -9 16 -31.5t19 -35.5t19 -13q6 0 6 10q0 13 -21.5 71t-21.5 73v1009h450v-1464h-735l-772 1083q-7 10 -16.5 31.5t-18 35t-18.5 13.5q-6 0 -6 -8q0 -13 21.5 -71.5t21.5 -73.5v-1010h-451zM2269 254v154h703v-154h-703zM2294 860v111 q0 88 56.5 143t164.5 55h203q109 0 164 -53t55 -143v-111q0 -89 -57 -147t-162 -58h-203q-104 0 -162.5 57t-58.5 146zM2443 877q0 -99 119 -99h115q58 0 84 23t26 73v78q0 97 -110 97h-115q-119 0 -119 -97v-75z" />
<glyph unicode="&#xba;" horiz-adv-x="2097" d="M160 731q0 148 2 230.5t17.5 175t35.5 135.5t70.5 91t107 64.5t160 33t215.5 19.5t287 3q108 0 183.5 -1t158.5 -5t139 -11t115.5 -18.5t97 -28t75 -40t59.5 -54t39.5 -70t24.5 -87.5t7 -107v-162h-451q0 149 -64.5 177t-383.5 28q-258 0 -326 -12q-79 -14 -101 -61 q-18 -39 -18 -142h674v-318h-674q0 -111 21 -148q26 -45 115 -58q68 -9 309 -9h114t91.5 2t75.5 4t56 8.5t44 12.5t28.5 19t21 26t10.5 34.5t6.5 43.5t0.5 55h451v-164q0 -74 -11 -131t-39.5 -100.5t-62 -74t-95 -51.5t-121 -33.5t-157.5 -19t-187 -8.5t-226 -2 q-174 0 -284 3t-214 19t-160.5 33t-107.5 64t-71.5 91.5t-36.5 135.5t-18.5 176t-2.5 232z" />
<glyph unicode="&#xbb;" horiz-adv-x="1255" d="M35 229l428 342l-424 344l123 150l538 -447v-102l-542 -434zM545 229l426 342l-422 344l123 150l538 -447v-102l-542 -434z" />
<glyph unicode="&#xbc;" horiz-adv-x="1091" d="M139 520v283h836v-283h-836zM352 57v340h396v-340h-396zM352 926v340h396v-340h-396z" />
<glyph unicode="&#xbd;" horiz-adv-x="1155" d="M168 461l209 209l-209 207l201 200l206 -209l211 211l197 -196l-211 -209l227 -228l-200 -200l-228 227l-206 -209z" />
<glyph unicode="&#xbf;" horiz-adv-x="921" d="M-127 1567v241h451v-241h-451zM180 0v1464h451v-1464h-451zM467 1567v241h451v-241h-451z" />
<glyph unicode="&#xc0;" horiz-adv-x="2353" d="M45 0l727 1464h768l729 -1464h-526l-139 244h-893l-140 -244h-526zM879 623h555l-242 514h-72z" />
<glyph unicode="&#xc1;" horiz-adv-x="2136" d="M152 0v1464h1679v-354h-1229v-199h909q236 0 344.5 -106.5t108.5 -323.5q0 -112 -22 -196t-60.5 -138t-97 -87.5t-123.5 -46.5t-148 -13h-1361zM602 354h782q59 0 94 28t35 81q0 70 -33 95.5t-98 25.5h-780v-230z" />
<glyph unicode="&#xc2;" d="M133 0v1464h1309q54 0 93.5 -2.5t90 -12t85.5 -26t71.5 -47.5t59 -74t36.5 -106.5t14 -144.5q0 -115 -42 -192t-107 -107q203 -89 203 -346q0 -222 -104.5 -314t-346.5 -92h-1362zM584 354h780q60 0 95.5 29t35.5 82q0 70 -33 95.5t-98 25.5h-780v-232zM584 913h798 q113 0 113 99q0 98 -113 98h-798v-197z" />
<glyph unicode="&#xc3;" horiz-adv-x="1685" d="M145 0v1464h1465v-379h-1014v-1085h-451z" />
<glyph unicode="&#xc4;" horiz-adv-x="2312" d="M168 -154v533h80q42 0 67 78.5t41.5 324.5t16.5 682h1689v-1085h113v-533h-451v62q0 50 -21.5 71t-74.5 21h-911q-53 0 -75 -21t-24 -71v-62h-450zM733 379h879v706h-789q0 -287 -26.5 -479.5t-63.5 -226.5z" />
<glyph unicode="&#xc5;" horiz-adv-x="1961" d="M162 0v1464h1577v-354h-1127v-203h1076v-352h-1076v-201h1127v-354h-1577z" />
<glyph unicode="&#xc6;" horiz-adv-x="3323" d="M80 0l825 770l-731 694h627l504 -510h125v510h450v-510h125l508 510h622l-731 -696l826 -768h-656l-569 575h-125v-575h-450v575h-125l-566 -575h-659z" />
<glyph unicode="&#xc7;" horiz-adv-x="2160" d="M178 573h451q0 -100 13 -131q20 -48 98 -65q85 -18 397 -19h127q135 0 191 22.5t56 86.5q0 63 -55.5 84.5t-191.5 21.5h-418v318h418q136 0 191.5 21.5t55.5 86.5q0 63 -53.5 85t-193.5 22q-386 0 -481 -12q-106 -12 -134 -55q-19 -29 -20 -115v-23h-451q0 108 4 179 t22.5 137.5t42 104t76 71.5t110 49t160 26.5t209.5 14t273 2.5q140 0 227 -1.5t186 -8t156 -18.5t118 -33t92.5 -51.5t59.5 -74.5t38 -101.5t10 -133.5q0 -41 -2 -70t-11.5 -69t-26 -70.5t-47.5 -63.5t-75 -59q46 -22 74.5 -44t47 -45.5t27 -61.5t11 -76t2.5 -105 q0 -74 -10.5 -131t-38 -100.5t-60.5 -74t-93 -51.5t-118.5 -33t-156 -18.5t-185.5 -8.5t-225 -2q-171 0 -284.5 3t-215 16.5t-160 27.5t-108.5 51.5t-71.5 73t-37 106.5t-18 136.5t-2.5 178.5z" />
<glyph unicode="&#xc8;" horiz-adv-x="2455" d="M188 0v1464h451v-1009q0 -15 -20.5 -73t-20.5 -71q0 -10 6 -10q11 0 21 16t19 37.5t13 26.5l770 1083h738v-1464h-451v1010q0 15 21.5 73t21.5 70q0 10 -6 10q-10 0 -20 -15t-19.5 -37t-13.5 -28l-772 -1083h-738z" />
<glyph unicode="&#xc9;" horiz-adv-x="2365" d="M172 0v1464h451v-1007q0 -15 -20.5 -74t-20.5 -72q0 -8 6 -8q10 0 20 15t19.5 37t13.5 28l770 1081h737v-1464h-450v1012q0 16 21.5 75t21.5 68q0 10 -6 10q-10 0 -20.5 -15t-20.5 -37.5t-13 -27.5l-772 -1085h-737zM844 1546v203h725v-203h-725z" />
<glyph unicode="&#xca;" horiz-adv-x="2170" d="M156 0v1464h450v-514h236l512 514h618l-731 -698l821 -766h-651l-569 571h-236v-571h-450z" />
<glyph unicode="&#xcb;" horiz-adv-x="2304" d="M127 0v379q87 0 116 14q50 24 69 121q25 122 27 558q1 119 1 392h1702v-1464h-451v1085h-800q0 -329 -25.5 -541.5t-84 -332.5t-138.5 -165.5t-203 -45.5h-213z" />
<glyph unicode="&#xcc;" horiz-adv-x="2797" d="M160 0v1464h809l385 -823q5 -10 10 -55.5t11 -83t14 -37.5t13.5 37.5t10.5 83t10 55.5l385 823h768v-1464h-450v1022q0 24 10 63.5t10 53.5q0 12 -12 12q-3 0 -6 -2.5t-6.5 -7.5t-6.5 -9.5t-6.5 -12t-5.5 -12.5t-5.5 -13t-4.5 -11l-520 -1083h-369l-561 1087 q-1 3 -4.5 11t-5.5 13t-5.5 12.5t-6.5 12t-6.5 9.5t-6.5 7.5t-6 2.5q-12 0 -12 -16q0 -10 10 -49.5t10 -63.5v-1026h-450z" />
<glyph unicode="&#xcd;" horiz-adv-x="2256" d="M145 0v1464h451v-516h973v516h450v-1464h-450v569h-973v-569h-451z" />
<glyph unicode="&#xce;" horiz-adv-x="2269" d="M176 731q0 156 1.5 235t17.5 176.5t35.5 136.5t74.5 89.5t114 64t174 31t235 19.5t315 2t314 -2t234 -19t174 -31.5t114.5 -64t75.5 -90t36.5 -136.5t18 -176t1.5 -235q0 -154 -1.5 -234t-18 -176t-36.5 -136t-75.5 -89.5t-114.5 -63.5t-174 -31t-234 -19t-314 -2 q-156 0 -258 1t-206 11t-164 16.5t-121 34.5t-90.5 48t-59.5 73.5t-39.5 93.5t-18.5 126.5t-9.5 154t-0.5 192.5zM627 731q0 -183 13 -238q17 -75 78 -102q64 -29 257 -32l168 -1q275 0 353 12q99 16 132 71q30 49 32 186q1 32 1 104q0 184 -13 239q-17 76 -78 103 q-64 29 -257 32l-168 1q-275 0 -353 -13q-99 -15 -132 -69q-30 -49 -32 -187q-1 -33 -1 -106z" />
<glyph unicode="&#xcf;" horiz-adv-x="2330" d="M213 0v1464h1915v-1464h-451v1085h-1013v-1085h-451z" />
<glyph unicode="&#xd0;" horiz-adv-x="2060" d="M190 0v1464h1102q91 0 155 -3t129.5 -12.5t108.5 -27t84.5 -46t66 -69t44 -97.5t27.5 -130.5t8 -167.5q0 -75 -5 -136.5t-17.5 -112t-28 -90.5t-41 -71t-53 -53.5t-67.5 -38.5t-80.5 -26t-95.5 -15.5t-109 -7.5t-126 -2h-651v-358h-451zM641 737h651q81 0 126.5 38.5 t45.5 135.5t-45.5 135.5t-126.5 38.5h-651v-348z" />
<glyph unicode="&#xd1;" horiz-adv-x="2064" d="M111 733q0 145 2.5 230.5t18.5 175.5t37 134.5t72 91.5t107.5 64t160 33.5t214 19.5t283.5 3q135 0 235 -2.5t189 -11t150.5 -17.5t114 -31.5t84.5 -42t57.5 -59t37.5 -74t20 -95t9.5 -113.5t1.5 -138h-451q0 45 -4.5 72t-20.5 53t-44.5 39t-79.5 23.5t-122.5 14 t-176.5 3.5h-147t-108 -8.5t-81 -13.5t-51.5 -31t-34.5 -43.5t-15 -68.5t-8 -89v-121v-122t8.5 -89t14.5 -68.5t34.5 -43t51 -30t81.5 -12.5t108 -8h147q106 0 174.5 2.5t121.5 12t80.5 22t45 38t22 54.5t4.5 76h451q0 -110 -2.5 -170.5t-16.5 -131.5t-35.5 -104.5 t-69 -72.5t-108 -53t-160.5 -29t-218 -18.5t-289 -3.5q-173 0 -283.5 3t-214 19t-160 33t-107.5 64t-72 91.5t-37 135t-18.5 176t-2.5 231.5z" />
<glyph unicode="&#xd2;" horiz-adv-x="2123" d="M178 1085v379h1743v-379h-645v-1085h-451v1085h-647z" />
<glyph unicode="&#xd3;" horiz-adv-x="2131" d="M23 1464h624l518 -610q8 -9 16.5 -40.5t15.5 -57t15 -25.5q6 0 7.5 27.5t5.5 66.5t16 60l330 579h508l-525 -932q-21 -37 -59 -106q-50 -92 -75 -134t-70 -103t-83.5 -86.5t-98.5 -54.5t-135 -38.5t-175 -9.5h-467v379h490q48 0 63 8t31 37z" />
<glyph unicode="&#xd4;" horiz-adv-x="2824" d="M106 737q0 125 24.5 224t67.5 166t104 111t130.5 63.5t149.5 19.5h559v143h450v-143h559q80 0 149.5 -19.5t130.5 -63.5t104 -111t67.5 -166t24.5 -224q0 -154 -36 -268.5t-102 -182t-150 -100t-188 -32.5h-559v-154h-450v154h-559q-104 0 -188 32.5t-150 100t-102 182 t-36 268.5zM557 725q0 -120 46 -168.5t128 -48.5h410v434h-410q-81 0 -127.5 -49t-46.5 -168zM1591 508h410q82 0 128 48.5t46 168.5q0 119 -46.5 168t-127.5 49h-410v-434z" />
<glyph unicode="&#xd5;" horiz-adv-x="2121" d="M10 0l670 748l-670 716h625l422 -471l422 471h624l-669 -716l669 -748h-606l-440 492l-441 -492h-606z" />
<glyph unicode="&#xd6;" horiz-adv-x="2344" d="M217 0v1464h451v-1085h921v1085h451v-1085h143v-615h-450v144q0 50 -21.5 71t-75.5 21h-1419z" />
<glyph unicode="&#xd7;" horiz-adv-x="2043" d="M164 918v546h450v-546q0 -63 46 -106.5t131 -43.5h653v696h450v-1464h-450v389h-653q-163 0 -274.5 24t-193.5 83.5t-120.5 163t-38.5 258.5z" />
<glyph unicode="&#xd8;" horiz-adv-x="3020" d="M246 0v1464h450v-1085h604v1085h451v-1085h604v1085h451v-1464h-2560z" />
<glyph unicode="&#xd9;" horiz-adv-x="3057" d="M246 0v1464h450v-1085h604v1085h451v-1085h604v1085h451v-1085h143v-615h-450v144q0 50 -21.5 71t-75.5 21h-2156z" />
<glyph unicode="&#xda;" horiz-adv-x="2177" d="M129 1106v358h614v-358h652q72 0 125.5 -2t109 -7.5t95.5 -15.5t80 -26t67 -38.5t52.5 -53.5t41 -71t27.5 -90.5t17 -112t5 -136.5q0 -95 -8 -168t-27 -130t-43.5 -97.5t-65.5 -69t-84 -46t-108.5 -27t-129 -12.5t-154.5 -3h-1102v1106h-164zM743 379h652 q81 0 125.5 37.5t44.5 136.5q0 98 -45 136t-127 38h-650v-348z" />
<glyph unicode="&#xdb;" horiz-adv-x="2678" d="M125 0v1464h450v-358h652q71 0 125 -2t109.5 -8t95.5 -16t79.5 -26t66.5 -38.5t52 -53.5t40.5 -70.5t27.5 -90.5t17 -112t5 -136t-5 -136t-17 -112t-27.5 -90.5t-40.5 -70.5t-52 -53.5t-66.5 -38.5t-79.5 -26t-95.5 -16t-109.5 -8t-125 -2h-1102zM575 379h652 q81 0 124.5 37t43.5 135q0 99 -44 137.5t-124 38.5h-652v-348zM2093 0v1464h451v-1464h-451z" />
<glyph unicode="&#xdc;" horiz-adv-x="2004" d="M154 0v1464h450v-358h651q72 0 126 -2t109 -7.5t95.5 -15.5t80.5 -26t67.5 -38.5t53 -53.5t41 -71t28 -90.5t17.5 -112t5 -136.5q0 -76 -5 -138t-17.5 -113t-28 -90.5t-41 -70.5t-53 -53.5t-68 -38t-80 -25t-95.5 -15t-109.5 -7.5t-125.5 -2h-1101zM604 379h651 q81 0 126.5 38.5t45.5 135.5q0 99 -45 136.5t-127 37.5h-651v-348z" />
<glyph unicode="&#xdd;" horiz-adv-x="2097" d="M160 399v164h450q0 -149 64 -177t383 -28q126 0 180.5 0.5t119 8.5t82.5 18t39 38t23 59.5t2 90.5h-676v318h676q0 59 -2 90.5t-23 59.5t-39 38t-82.5 18t-119 8.5t-180.5 0.5q-319 0 -383 -28t-64 -177h-450v162q0 85 17 147.5t46 108t87.5 75.5t119.5 48.5t166.5 27.5 t205 12t255.5 3q139 0 235 -1.5t189 -11.5t150.5 -19t113 -36t85 -50t56.5 -74t37.5 -94.5t19 -125t10 -152t1.5 -188.5q0 -146 -2.5 -231.5t-19 -176t-37 -135t-71.5 -91.5t-107.5 -64t-161 -33t-214.5 -19t-284 -3q-137 0 -226 2t-187 8.5t-157 18.5t-120.5 33t-95 51.5 t-61.5 74t-39 100.5t-11 131z" />
<glyph unicode="&#xde;" horiz-adv-x="2797" d="M29 0v1464h450v-532h242q0 98 5.5 164t25 127t47.5 98t83 69.5t120.5 48.5t171.5 27.5t224 15t290 3.5q195 0 314 -2t234 -19t174 -31.5t114.5 -64t75.5 -90t36.5 -136.5t18 -176t1.5 -235q0 -154 -1.5 -234t-18 -176t-36.5 -136t-75.5 -89.5t-114.5 -63.5t-174 -31 t-234 -19t-314 -2q-176 0 -294 3t-226 15t-172 27.5t-119.5 49.5t-81.5 71.5t-45.5 102t-24 132.5t-4.5 172h-242v-553h-450zM1171 731q0 -59 1 -96.5t6.5 -77.5t11.5 -62.5t22.5 -46.5t32.5 -35.5t49.5 -24t65 -17t86.5 -8.5t107 -4.5t133 -0.5q80 0 131 0.5t105.5 4.5 t86.5 9t65.5 16.5t50.5 24t35 35.5t24.5 47t13 62.5t7.5 77.5t1 96t-1 95.5t-7 77.5t-12.5 62.5t-23.5 47.5t-34 36t-50 24.5t-65 17t-86 8.5t-106 5t-131 1t-131 -1t-106 -5t-86 -9t-65.5 -16.5t-50.5 -24.5t-34.5 -36t-24 -47t-12.5 -62.5t-7.5 -77.5t-1.5 -96z" />
<glyph unicode="&#xdf;" horiz-adv-x="2019" d="M123 0v328q0 71 9 115.5t35 78t60.5 54.5t98.5 49q-110 43 -156.5 135.5t-46.5 277.5q0 107 24.5 185.5t63.5 124t100 72.5t121.5 35.5t140.5 8.5h1311v-1464h-450v410h-713q-77 0 -112.5 -45.5t-35.5 -102.5v-262h-450zM573 936q0 -81 33 -114.5t105 -33.5h723v297h-723 q-73 0 -105.5 -33t-32.5 -116z" />
<glyph unicode="&#xe0;" horiz-adv-x="2353" d="M45 0l727 1464h768l729 -1464h-526l-139 244h-893l-140 -244h-526zM879 623h555l-242 514h-72z" />
<glyph unicode="&#xe1;" horiz-adv-x="2136" d="M152 0v1464h1679v-354h-1229v-199h909q236 0 344.5 -106.5t108.5 -323.5q0 -112 -22 -196t-60.5 -138t-97 -87.5t-123.5 -46.5t-148 -13h-1361zM602 354h782q59 0 94 28t35 81q0 70 -33 95.5t-98 25.5h-780v-230z" />
<glyph unicode="&#xe2;" d="M133 0v1464h1309q54 0 93.5 -2.5t90 -12t85.5 -26t71.5 -47.5t59 -74t36.5 -106.5t14 -144.5q0 -115 -42 -192t-107 -107q203 -89 203 -346q0 -222 -104.5 -314t-346.5 -92h-1362zM584 354h780q60 0 95.5 29t35.5 82q0 70 -33 95.5t-98 25.5h-780v-232zM584 913h798 q113 0 113 99q0 98 -113 98h-798v-197z" />
<glyph unicode="&#xe3;" horiz-adv-x="1685" d="M145 0v1464h1465v-379h-1014v-1085h-451z" />
<glyph unicode="&#xe4;" horiz-adv-x="2312" d="M168 -154v533h80q42 0 67 78.5t41.5 324.5t16.5 682h1689v-1085h113v-533h-451v62q0 50 -21.5 71t-74.5 21h-911q-53 0 -75 -21t-24 -71v-62h-450zM733 379h879v706h-789q0 -287 -26.5 -479.5t-63.5 -226.5z" />
<glyph unicode="&#xe5;" horiz-adv-x="1961" d="M162 0v1464h1577v-354h-1127v-203h1076v-352h-1076v-201h1127v-354h-1577z" />
<glyph unicode="&#xe6;" horiz-adv-x="3323" d="M80 0l825 770l-731 694h627l504 -510h125v510h450v-510h125l508 510h622l-731 -696l826 -768h-656l-569 575h-125v-575h-450v575h-125l-566 -575h-659z" />
<glyph unicode="&#xe7;" horiz-adv-x="2160" d="M178 573h451q0 -100 13 -131q20 -48 98 -65q85 -18 397 -19h127q135 0 191 22.5t56 86.5q0 63 -55.5 84.5t-191.5 21.5h-418v318h418q136 0 191.5 21.5t55.5 86.5q0 63 -53.5 85t-193.5 22q-386 0 -481 -12q-106 -12 -134 -55q-19 -29 -20 -115v-23h-451q0 108 4 179 t22.5 137.5t42 104t76 71.5t110 49t160 26.5t209.5 14t273 2.5q140 0 227 -1.5t186 -8t156 -18.5t118 -33t92.5 -51.5t59.5 -74.5t38 -101.5t10 -133.5q0 -41 -2 -70t-11.5 -69t-26 -70.5t-47.5 -63.5t-75 -59q46 -22 74.5 -44t47 -45.5t27 -61.5t11 -76t2.5 -105 q0 -74 -10.5 -131t-38 -100.5t-60.5 -74t-93 -51.5t-118.5 -33t-156 -18.5t-185.5 -8.5t-225 -2q-171 0 -284.5 3t-215 16.5t-160 27.5t-108.5 51.5t-71.5 73t-37 106.5t-18 136.5t-2.5 178.5z" />
<glyph unicode="&#xe8;" horiz-adv-x="2455" d="M188 0v1464h451v-1009q0 -15 -20.5 -73t-20.5 -71q0 -10 6 -10q11 0 21 16t19 37.5t13 26.5l770 1083h738v-1464h-451v1010q0 15 21.5 73t21.5 70q0 10 -6 10q-10 0 -20 -15t-19.5 -37t-13.5 -28l-772 -1083h-738z" />
<glyph unicode="&#xe9;" horiz-adv-x="2365" d="M172 0v1464h451v-1007q0 -15 -20.5 -74t-20.5 -72q0 -8 6 -8q10 0 20 15t19.5 37t13.5 28l770 1081h737v-1464h-450v1012q0 16 21.5 75t21.5 68q0 10 -6 10q-10 0 -20.5 -15t-20.5 -37.5t-13 -27.5l-772 -1085h-737zM844 1546v203h725v-203h-725z" />
<glyph unicode="&#xea;" horiz-adv-x="2170" d="M156 0v1464h450v-514h236l512 514h618l-731 -698l821 -766h-651l-569 571h-236v-571h-450z" />
<glyph unicode="&#xeb;" horiz-adv-x="2304" d="M127 0v379q87 0 116 14q50 24 69 121q25 122 27 558q1 119 1 392h1702v-1464h-451v1085h-800q0 -329 -25.5 -541.5t-84 -332.5t-138.5 -165.5t-203 -45.5h-213z" />
<glyph unicode="&#xec;" horiz-adv-x="2797" d="M160 0v1464h809l385 -823q5 -10 10 -55.5t11 -83t14 -37.5t13.5 37.5t10.5 83t10 55.5l385 823h768v-1464h-450v1022q0 24 10 63.5t10 53.5q0 12 -12 12q-3 0 -6 -2.5t-6.5 -7.5t-6.5 -9.5t-6.5 -12t-5.5 -12.5t-5.5 -13t-4.5 -11l-520 -1083h-369l-561 1087 q-1 3 -4.5 11t-5.5 13t-5.5 12.5t-6.5 12t-6.5 9.5t-6.5 7.5t-6 2.5q-12 0 -12 -16q0 -10 10 -49.5t10 -63.5v-1026h-450z" />
<glyph unicode="&#xed;" horiz-adv-x="2256" d="M145 0v1464h451v-516h973v516h450v-1464h-450v569h-973v-569h-451z" />
<glyph unicode="&#xee;" horiz-adv-x="2269" d="M176 731q0 156 1.5 235t17.5 176.5t35.5 136.5t74.5 89.5t114 64t174 31t235 19.5t315 2t314 -2t234 -19t174 -31.5t114.5 -64t75.5 -90t36.5 -136.5t18 -176t1.5 -235q0 -154 -1.5 -234t-18 -176t-36.5 -136t-75.5 -89.5t-114.5 -63.5t-174 -31t-234 -19t-314 -2 q-156 0 -258 1t-206 11t-164 16.5t-121 34.5t-90.5 48t-59.5 73.5t-39.5 93.5t-18.5 126.5t-9.5 154t-0.5 192.5zM627 731q0 -183 13 -238q17 -75 78 -102q64 -29 257 -32l168 -1q275 0 353 12q99 16 132 71q30 49 32 186q1 32 1 104q0 184 -13 239q-17 76 -78 103 q-64 29 -257 32l-168 1q-275 0 -353 -13q-99 -15 -132 -69q-30 -49 -32 -187q-1 -33 -1 -106z" />
<glyph unicode="&#xef;" horiz-adv-x="2330" d="M213 0v1464h1915v-1464h-451v1085h-1013v-1085h-451z" />
<glyph unicode="&#xf0;" horiz-adv-x="2060" d="M190 0v1464h1102q91 0 155 -3t129.5 -12.5t108.5 -27t84.5 -46t66 -69t44 -97.5t27.5 -130.5t8 -167.5q0 -75 -5 -136.5t-17.5 -112t-28 -90.5t-41 -71t-53 -53.5t-67.5 -38.5t-80.5 -26t-95.5 -15.5t-109 -7.5t-126 -2h-651v-358h-451zM641 737h651q81 0 126.5 38.5 t45.5 135.5t-45.5 135.5t-126.5 38.5h-651v-348z" />
<glyph unicode="&#xf1;" horiz-adv-x="2064" d="M111 733q0 145 2.5 230.5t18.5 175.5t37 134.5t72 91.5t107.5 64t160 33.5t214 19.5t283.5 3q135 0 235 -2.5t189 -11t150.5 -17.5t114 -31.5t84.5 -42t57.5 -59t37.5 -74t20 -95t9.5 -113.5t1.5 -138h-451q0 45 -4.5 72t-20.5 53t-44.5 39t-79.5 23.5t-122.5 14 t-176.5 3.5h-147t-108 -8.5t-81 -13.5t-51.5 -31t-34.5 -43.5t-15 -68.5t-8 -89v-121v-122t8.5 -89t14.5 -68.5t34.5 -43t51 -30t81.5 -12.5t108 -8h147q106 0 174.5 2.5t121.5 12t80.5 22t45 38t22 54.5t4.5 76h451q0 -110 -2.5 -170.5t-16.5 -131.5t-35.5 -104.5 t-69 -72.5t-108 -53t-160.5 -29t-218 -18.5t-289 -3.5q-173 0 -283.5 3t-214 19t-160 33t-107.5 64t-72 91.5t-37 135t-18.5 176t-2.5 231.5z" />
<glyph unicode="&#xf2;" horiz-adv-x="2123" d="M178 1085v379h1743v-379h-645v-1085h-451v1085h-647z" />
<glyph unicode="&#xf3;" horiz-adv-x="2131" d="M23 1464h624l518 -610q8 -9 16.5 -40.5t15.5 -57t15 -25.5q6 0 7.5 27.5t5.5 66.5t16 60l330 579h508l-525 -932q-21 -37 -59 -106q-50 -92 -75 -134t-70 -103t-83.5 -86.5t-98.5 -54.5t-135 -38.5t-175 -9.5h-467v379h490q48 0 63 8t31 37z" />
<glyph unicode="&#xf4;" horiz-adv-x="2824" d="M106 737q0 125 24.5 224t67.5 166t104 111t130.5 63.5t149.5 19.5h559v143h450v-143h559q80 0 149.5 -19.5t130.5 -63.5t104 -111t67.5 -166t24.5 -224q0 -154 -36 -268.5t-102 -182t-150 -100t-188 -32.5h-559v-154h-450v154h-559q-104 0 -188 32.5t-150 100t-102 182 t-36 268.5zM557 725q0 -120 46 -168.5t128 -48.5h410v434h-410q-81 0 -127.5 -49t-46.5 -168zM1591 508h410q82 0 128 48.5t46 168.5q0 119 -46.5 168t-127.5 49h-410v-434z" />
<glyph unicode="&#xf5;" horiz-adv-x="2121" d="M10 0l670 748l-670 716h625l422 -471l422 471h624l-669 -716l669 -748h-606l-440 492l-441 -492h-606z" />
<glyph unicode="&#xf6;" horiz-adv-x="2344" d="M217 0v1464h451v-1085h921v1085h451v-1085h143v-615h-450v144q0 50 -21.5 71t-75.5 21h-1419z" />
<glyph unicode="&#xf7;" horiz-adv-x="2043" d="M164 918v546h450v-546q0 -63 46 -106.5t131 -43.5h653v696h450v-1464h-450v389h-653q-163 0 -274.5 24t-193.5 83.5t-120.5 163t-38.5 258.5z" />
<glyph unicode="&#xf8;" horiz-adv-x="3020" d="M246 0v1464h450v-1085h604v1085h451v-1085h604v1085h451v-1464h-2560z" />
<glyph unicode="&#xf9;" horiz-adv-x="3057" d="M246 0v1464h450v-1085h604v1085h451v-1085h604v1085h451v-1085h143v-615h-450v144q0 50 -21.5 71t-75.5 21h-2156z" />
<glyph unicode="&#xfa;" horiz-adv-x="2177" d="M129 1106v358h614v-358h652q72 0 125.5 -2t109 -7.5t95.5 -15.5t80 -26t67 -38.5t52.5 -53.5t41 -71t27.5 -90.5t17 -112t5 -136.5q0 -95 -8 -168t-27 -130t-43.5 -97.5t-65.5 -69t-84 -46t-108.5 -27t-129 -12.5t-154.5 -3h-1102v1106h-164zM743 379h652 q81 0 125.5 37.5t44.5 136.5q0 98 -45 136t-127 38h-650v-348z" />
<glyph unicode="&#xfb;" horiz-adv-x="2678" d="M125 0v1464h450v-358h652q71 0 125 -2t109.5 -8t95.5 -16t79.5 -26t66.5 -38.5t52 -53.5t40.5 -70.5t27.5 -90.5t17 -112t5 -136t-5 -136t-17 -112t-27.5 -90.5t-40.5 -70.5t-52 -53.5t-66.5 -38.5t-79.5 -26t-95.5 -16t-109.5 -8t-125 -2h-1102zM575 379h652 q81 0 124.5 37t43.5 135q0 99 -44 137.5t-124 38.5h-652v-348zM2093 0v1464h451v-1464h-451z" />
<glyph unicode="&#xfc;" horiz-adv-x="2004" d="M154 0v1464h450v-358h651q72 0 126 -2t109 -7.5t95.5 -15.5t80.5 -26t67.5 -38.5t53 -53.5t41 -71t28 -90.5t17.5 -112t5 -136.5q0 -76 -5 -138t-17.5 -113t-28 -90.5t-41 -70.5t-53 -53.5t-68 -38t-80 -25t-95.5 -15t-109.5 -7.5t-125.5 -2h-1101zM604 379h651 q81 0 126.5 38.5t45.5 135.5q0 99 -45 136.5t-127 37.5h-651v-348z" />
<glyph unicode="&#xfd;" horiz-adv-x="2097" d="M160 399v164h450q0 -149 64 -177t383 -28q126 0 180.5 0.5t119 8.5t82.5 18t39 38t23 59.5t2 90.5h-676v318h676q0 59 -2 90.5t-23 59.5t-39 38t-82.5 18t-119 8.5t-180.5 0.5q-319 0 -383 -28t-64 -177h-450v162q0 85 17 147.5t46 108t87.5 75.5t119.5 48.5t166.5 27.5 t205 12t255.5 3q139 0 235 -1.5t189 -11.5t150.5 -19t113 -36t85 -50t56.5 -74t37.5 -94.5t19 -125t10 -152t1.5 -188.5q0 -146 -2.5 -231.5t-19 -176t-37 -135t-71.5 -91.5t-107.5 -64t-161 -33t-214.5 -19t-284 -3q-137 0 -226 2t-187 8.5t-157 18.5t-120.5 33t-95 51.5 t-61.5 74t-39 100.5t-11 131z" />
<glyph unicode="&#xfe;" horiz-adv-x="2797" d="M29 0v1464h450v-532h242q0 98 5.5 164t25 127t47.5 98t83 69.5t120.5 48.5t171.5 27.5t224 15t290 3.5q195 0 314 -2t234 -19t174 -31.5t114.5 -64t75.5 -90t36.5 -136.5t18 -176t1.5 -235q0 -154 -1.5 -234t-18 -176t-36.5 -136t-75.5 -89.5t-114.5 -63.5t-174 -31 t-234 -19t-314 -2q-176 0 -294 3t-226 15t-172 27.5t-119.5 49.5t-81.5 71.5t-45.5 102t-24 132.5t-4.5 172h-242v-553h-450zM1171 731q0 -59 1 -96.5t6.5 -77.5t11.5 -62.5t22.5 -46.5t32.5 -35.5t49.5 -24t65 -17t86.5 -8.5t107 -4.5t133 -0.5q80 0 131 0.5t105.5 4.5 t86.5 9t65.5 16.5t50.5 24t35 35.5t24.5 47t13 62.5t7.5 77.5t1 96t-1 95.5t-7 77.5t-12.5 62.5t-23.5 47.5t-34 36t-50 24.5t-65 17t-86 8.5t-106 5t-131 1t-131 -1t-106 -5t-86 -9t-65.5 -16.5t-50.5 -24.5t-34.5 -36t-24 -47t-12.5 -62.5t-7.5 -77.5t-1.5 -96z" />
<glyph unicode="&#xff;" horiz-adv-x="2019" d="M123 0v328q0 71 9 115.5t35 78t60.5 54.5t98.5 49q-110 43 -156.5 135.5t-46.5 277.5q0 107 24.5 185.5t63.5 124t100 72.5t121.5 35.5t140.5 8.5h1311v-1464h-450v410h-713q-77 0 -112.5 -45.5t-35.5 -102.5v-262h-450zM573 936q0 -81 33 -114.5t105 -33.5h723v297h-723 q-73 0 -105.5 -33t-32.5 -116z" />
<glyph unicode="&#x2000;" horiz-adv-x="904" />
<glyph unicode="&#x2001;" horiz-adv-x="1808" />
<glyph unicode="&#x2002;" horiz-adv-x="904" />
<glyph unicode="&#x2003;" horiz-adv-x="1808" />
<glyph unicode="&#x2004;" horiz-adv-x="602" />
<glyph unicode="&#x2005;" horiz-adv-x="452" />
<glyph unicode="&#x2006;" horiz-adv-x="301" />
<glyph unicode="&#x2007;" horiz-adv-x="301" />
<glyph unicode="&#x2008;" horiz-adv-x="226" />
<glyph unicode="&#x2009;" horiz-adv-x="361" />
<glyph unicode="&#x200a;" horiz-adv-x="100" />
<glyph unicode="&#x2010;" horiz-adv-x="2086" d="M293 520v283h1495v-283h-1495z" />
<glyph unicode="&#x2011;" horiz-adv-x="2086" d="M293 520v283h1495v-283h-1495z" />
<glyph unicode="&#x2012;" horiz-adv-x="2086" d="M293 520v283h1495v-283h-1495z" />
<glyph unicode="&#x2013;" horiz-adv-x="1615" d="M293 520v283h1024v-283h-1024z" />
<glyph unicode="&#x2014;" horiz-adv-x="2639" d="M293 520v283h2048v-283h-2048z" />
<glyph unicode="&#x202f;" horiz-adv-x="361" />
<glyph unicode="&#x205f;" horiz-adv-x="452" />
<glyph unicode="&#x25fc;" horiz-adv-x="1464" d="M0 0v1464h1464v-1464h-1464z" />
</font>
</defs>
</svg>
